%FSLAX34Y34*%
%MOMM*%
%LNSOLDERMASK_TOP*%
G71*
G01*
%ADD10C, 7.400*%
%ADD11C, 2.400*%
%ADD12C, 2.200*%
%ADD13C, 2.300*%
%ADD14C, 2.100*%
%ADD15C, 1.600*%
%ADD16C, 0.622*%
%ADD17C, 0.567*%
%LPD*%
X84137Y625475D02*
G54D10*
D03*
X84137Y104813D02*
G54D10*
D03*
X804862Y104813D02*
G54D10*
D03*
X804862Y625475D02*
G54D10*
D03*
X182562Y569612D02*
G54D11*
D03*
X207962Y569612D02*
G54D11*
D03*
X233362Y569612D02*
G54D11*
D03*
X258762Y569612D02*
G54D11*
D03*
X182562Y153687D02*
G54D11*
D03*
X207962Y153687D02*
G54D11*
D03*
X233362Y153688D02*
G54D11*
D03*
X258762Y153687D02*
G54D11*
D03*
X481012Y187362D02*
G54D11*
D03*
X481012Y212762D02*
G54D11*
D03*
X481012Y238162D02*
G54D11*
D03*
X481012Y263562D02*
G54D11*
D03*
X481012Y288962D02*
G54D11*
D03*
X481012Y314362D02*
G54D11*
D03*
X481012Y339762D02*
G54D11*
D03*
X481012Y365162D02*
G54D11*
D03*
X481012Y390562D02*
G54D11*
D03*
X481012Y415962D02*
G54D11*
D03*
X481012Y441362D02*
G54D11*
D03*
X481012Y466762D02*
G54D11*
D03*
X481012Y492162D02*
G54D11*
D03*
X481012Y517562D02*
G54D11*
D03*
X481012Y542962D02*
G54D11*
D03*
X328612Y187362D02*
G54D11*
D03*
X328612Y212762D02*
G54D11*
D03*
X328612Y238162D02*
G54D11*
D03*
X328612Y263562D02*
G54D11*
D03*
X328612Y288962D02*
G54D11*
D03*
X328612Y314362D02*
G54D11*
D03*
X328612Y339762D02*
G54D11*
D03*
X328612Y365162D02*
G54D11*
D03*
X328612Y390562D02*
G54D11*
D03*
X328612Y415962D02*
G54D11*
D03*
X328612Y441362D02*
G54D11*
D03*
X328612Y466762D02*
G54D11*
D03*
X328612Y492162D02*
G54D11*
D03*
X328612Y517562D02*
G54D11*
D03*
X328612Y542962D02*
G54D11*
D03*
X595312Y487400D02*
G54D11*
D03*
X595312Y462000D02*
G54D11*
D03*
X595312Y436600D02*
G54D11*
D03*
X595312Y411200D02*
G54D11*
D03*
X595312Y385800D02*
G54D11*
D03*
X595312Y360400D02*
G54D11*
D03*
X595312Y335000D02*
G54D11*
D03*
X94761Y322933D02*
G54D12*
D03*
X94761Y362933D02*
G54D12*
D03*
X94765Y539283D02*
G54D13*
D03*
G36*
X106265Y525383D02*
X106265Y502383D01*
X83265Y502383D01*
X83265Y525383D01*
X106265Y525383D01*
G37*
X94413Y204322D02*
G54D13*
D03*
G36*
X105913Y190422D02*
X105913Y167422D01*
X82913Y167422D01*
X82913Y190422D01*
X105913Y190422D01*
G37*
X94413Y229722D02*
G54D13*
D03*
X94413Y255122D02*
G54D13*
D03*
X747713Y487400D02*
G54D11*
D03*
X747713Y462000D02*
G54D11*
D03*
X747713Y436600D02*
G54D11*
D03*
X747713Y411200D02*
G54D11*
D03*
X747713Y385800D02*
G54D11*
D03*
X747713Y360400D02*
G54D11*
D03*
X747713Y335000D02*
G54D11*
D03*
G36*
X759713Y321600D02*
X759713Y297600D01*
X735713Y297600D01*
X735713Y321600D01*
X759713Y321600D01*
G37*
X595312Y309600D02*
G54D11*
D03*
X598414Y174577D02*
G54D14*
D03*
X623814Y174577D02*
G54D14*
D03*
X719064Y174577D02*
G54D14*
D03*
X744464Y174577D02*
G54D14*
D03*
X598329Y555651D02*
G54D14*
D03*
X598328Y530251D02*
G54D14*
D03*
X719064Y555577D02*
G54D14*
D03*
X744464Y555577D02*
G54D14*
D03*
X579884Y628209D02*
G54D13*
D03*
G36*
X565984Y616709D02*
X542984Y616709D01*
X542984Y639709D01*
X565984Y639709D01*
X565984Y616709D01*
G37*
X534987Y358838D02*
G54D15*
D03*
X776287Y358838D02*
G54D15*
D03*
X563563Y449326D02*
G54D15*
D03*
X481013Y160401D02*
G54D15*
D03*
X722759Y628209D02*
G54D13*
D03*
G36*
X708859Y616709D02*
X685859Y616709D01*
X685859Y639709D01*
X708859Y639709D01*
X708859Y616709D01*
G37*
X801688Y255651D02*
G54D15*
D03*
X258763Y441389D02*
G54D15*
D03*
X508000Y466788D02*
G54D15*
D03*
G54D16*
X275208Y605789D02*
X279208Y603567D01*
X280542Y601344D01*
X280542Y596900D01*
G54D16*
X269875Y596900D02*
X269875Y614678D01*
X276542Y614678D01*
X279208Y613567D01*
X280542Y611344D01*
X280542Y609122D01*
X279208Y606900D01*
X276542Y605789D01*
X269875Y605789D01*
G54D16*
X285431Y600233D02*
X286764Y598011D01*
X289431Y596900D01*
X292098Y596900D01*
X294764Y598011D01*
X296098Y600233D01*
X296098Y602456D01*
X294764Y604678D01*
X292098Y605789D01*
X289431Y605789D01*
X286764Y606900D01*
X285431Y609122D01*
X285431Y611344D01*
X286764Y613567D01*
X289431Y614678D01*
X292098Y614678D01*
X294764Y613567D01*
X296098Y611344D01*
G54D16*
X300987Y604678D02*
X311654Y604678D01*
G54D16*
X324543Y596900D02*
X324543Y614678D01*
X316543Y603567D01*
X316543Y601344D01*
X327210Y601344D01*
G54D16*
X338766Y605789D02*
X336099Y605789D01*
X333432Y606900D01*
X332099Y609122D01*
X332099Y611344D01*
X333432Y613567D01*
X336099Y614678D01*
X338766Y614678D01*
X341432Y613567D01*
X342766Y611344D01*
X342766Y609122D01*
X341432Y606900D01*
X338766Y605789D01*
X341432Y604678D01*
X342766Y602456D01*
X342766Y600233D01*
X341432Y598011D01*
X338766Y596900D01*
X336099Y596900D01*
X333432Y598011D01*
X332099Y600233D01*
X332099Y602456D01*
X333432Y604678D01*
X336099Y605789D01*
G54D16*
X358322Y614678D02*
X347655Y614678D01*
X347655Y606900D01*
X348988Y606900D01*
X351655Y608011D01*
X354322Y608011D01*
X356988Y606900D01*
X358322Y604678D01*
X358322Y600233D01*
X356988Y598011D01*
X354322Y596900D01*
X351655Y596900D01*
X348988Y598011D01*
X347655Y600233D01*
G54D17*
X153284Y103914D02*
X151284Y104414D01*
X149284Y103914D01*
X148284Y102248D01*
X148284Y98914D01*
X149284Y97248D01*
X151284Y96914D01*
X153284Y97248D01*
G54D17*
X156951Y96914D02*
X156951Y104414D01*
G54D17*
X156951Y102748D02*
X158951Y104414D01*
X160951Y104414D01*
G54D17*
X170618Y97748D02*
X169018Y96914D01*
X167018Y96914D01*
X165018Y97748D01*
X164618Y99414D01*
X164618Y102248D01*
X165618Y103914D01*
X167618Y104414D01*
X169618Y103914D01*
X170618Y102748D01*
X170618Y101081D01*
X164618Y101081D01*
G54D17*
X174285Y103581D02*
X176285Y104414D01*
X178685Y104414D01*
X180285Y102748D01*
X180285Y96914D01*
G54D17*
X180285Y99414D02*
X179285Y101081D01*
X177285Y101414D01*
X175285Y101081D01*
X174285Y99414D01*
X174685Y97748D01*
X176285Y96914D01*
X177285Y96914D01*
X177685Y96914D01*
X179285Y97748D01*
X180285Y99414D01*
G54D17*
X185952Y110248D02*
X185952Y97748D01*
X186952Y96914D01*
X187952Y97248D01*
G54D17*
X183952Y104414D02*
X187952Y104414D01*
G54D17*
X197619Y97748D02*
X196019Y96914D01*
X194019Y96914D01*
X192019Y97748D01*
X191619Y99414D01*
X191619Y102248D01*
X192619Y103914D01*
X194619Y104414D01*
X196619Y103914D01*
X197619Y102748D01*
X197619Y101081D01*
X191619Y101081D01*
G54D17*
X207286Y96914D02*
X207286Y110248D01*
G54D17*
X207286Y102248D02*
X206286Y103914D01*
X204286Y104414D01*
X202286Y103914D01*
X201286Y102248D01*
X201286Y98914D01*
X202286Y97248D01*
X204286Y96914D01*
X206286Y97248D01*
X207286Y98914D01*
G54D17*
X214820Y96914D02*
X214820Y110248D01*
G54D17*
X214820Y102248D02*
X215820Y103914D01*
X217820Y104414D01*
X219820Y103914D01*
X220820Y102248D01*
X220820Y98914D01*
X219820Y97248D01*
X217820Y96914D01*
X215820Y97248D01*
X214820Y98914D01*
G54D17*
X224487Y104414D02*
X228487Y96914D01*
X232487Y104414D01*
G54D17*
X228487Y96914D02*
X227487Y94414D01*
X226487Y93581D01*
X225487Y93581D01*
G54D17*
X240021Y96914D02*
X240021Y110248D01*
G54D17*
X240021Y101081D02*
X248021Y110248D01*
G54D17*
X243021Y103581D02*
X248021Y96914D01*
G54D17*
X251688Y103581D02*
X253688Y104414D01*
X256088Y104414D01*
X257688Y102748D01*
X257688Y96914D01*
G54D17*
X257688Y99414D02*
X256688Y101081D01*
X254688Y101414D01*
X252688Y101081D01*
X251688Y99414D01*
X252088Y97748D01*
X253688Y96914D01*
X254688Y96914D01*
X255088Y96914D01*
X256688Y97748D01*
X257688Y99414D01*
G54D17*
X261355Y96914D02*
X261355Y104414D01*
G54D17*
X261355Y102748D02*
X263355Y104414D01*
X265355Y104414D01*
G54D17*
X269022Y96914D02*
X269022Y110248D01*
G54D17*
X272689Y96914D02*
X272689Y110248D01*
G54D17*
X280689Y96914D02*
X280689Y110248D01*
G54D17*
X272689Y103581D02*
X280689Y103581D01*
G54D17*
X284356Y103581D02*
X286356Y104414D01*
X288756Y104414D01*
X290356Y102748D01*
X290356Y96914D01*
G54D17*
X290356Y99414D02*
X289356Y101081D01*
X287356Y101414D01*
X285356Y101081D01*
X284356Y99414D01*
X284756Y97748D01*
X286356Y96914D01*
X287356Y96914D01*
X287756Y96914D01*
X289356Y97748D01*
X290356Y99414D01*
G54D17*
X294023Y96914D02*
X294023Y104414D01*
G54D17*
X294023Y102748D02*
X295023Y103914D01*
X297023Y104414D01*
X299023Y103914D01*
X300023Y102748D01*
X300023Y96914D01*
G54D17*
X303690Y104414D02*
X309690Y104414D01*
X303690Y96914D01*
X309690Y96914D01*
X94413Y255121D02*
G54D13*
D03*
X94761Y322933D02*
G54D12*
D03*
X94765Y539283D02*
G54D13*
D03*
X404813Y119126D02*
G54D15*
D03*
X182562Y153687D02*
G54D11*
D03*
X471934Y628209D02*
G54D13*
D03*
G36*
X458034Y616709D02*
X435034Y616709D01*
X435034Y639709D01*
X458034Y639709D01*
X458034Y616709D01*
G37*
X471934Y628209D02*
G54D12*
D03*
X306388Y630301D02*
G54D15*
D03*
G54D16*
X160338Y628650D02*
X160338Y646428D01*
X167004Y646428D01*
X169671Y645317D01*
X171004Y643094D01*
X171004Y640872D01*
X169671Y638650D01*
X167004Y637539D01*
X160338Y637539D01*
G54D16*
X175894Y646428D02*
X175894Y628650D01*
X185227Y628650D01*
G54D16*
X190116Y628650D02*
X196782Y646428D01*
X203449Y628650D01*
G54D16*
X192782Y635317D02*
X200782Y635317D01*
G54D16*
X208338Y646428D02*
X215004Y637539D01*
X215004Y628650D01*
G54D16*
X215004Y637539D02*
X221671Y646428D01*
G54D16*
X226560Y628650D02*
X226560Y646428D01*
X233226Y646428D01*
X235893Y645317D01*
X237226Y643094D01*
X237226Y640872D01*
X235893Y638650D01*
X233226Y637539D01*
X235893Y636428D01*
X237226Y634206D01*
X237226Y631983D01*
X235893Y629761D01*
X233226Y628650D01*
X226560Y628650D01*
G54D16*
X226560Y637539D02*
X233226Y637539D01*
G54D16*
X242116Y628650D02*
X248782Y646428D01*
X255449Y628650D01*
G54D16*
X244782Y635317D02*
X252782Y635317D01*
G54D16*
X271004Y631983D02*
X269671Y629761D01*
X267004Y628650D01*
X264338Y628650D01*
X261671Y629761D01*
X260338Y631983D01*
X260338Y643094D01*
X261671Y645317D01*
X264338Y646428D01*
X267004Y646428D01*
X269671Y645317D01*
X271004Y643094D01*
G54D16*
X275894Y628650D02*
X275894Y646428D01*
G54D16*
X275894Y634206D02*
X286560Y646428D01*
G54D16*
X279894Y637539D02*
X286560Y628650D01*
G54D16*
X161925Y596900D02*
X161925Y614678D01*
X168592Y603567D01*
X175258Y614678D01*
X175258Y596900D01*
G54D16*
X190814Y611344D02*
X190814Y600233D01*
X189480Y598011D01*
X186814Y596900D01*
X184147Y596900D01*
X181480Y598011D01*
X180147Y600233D01*
X180147Y611344D01*
X181480Y613567D01*
X184147Y614678D01*
X186814Y614678D01*
X189480Y613567D01*
X190814Y611344D01*
G54D16*
X195703Y596900D02*
X195703Y614678D01*
X202370Y614678D01*
X205036Y613567D01*
X206370Y611344D01*
X206370Y600233D01*
X205036Y598011D01*
X202370Y596900D01*
X195703Y596900D01*
G54D16*
X211259Y614678D02*
X211259Y600233D01*
X212592Y598011D01*
X215259Y596900D01*
X217926Y596900D01*
X220592Y598011D01*
X221926Y600233D01*
X221926Y614678D01*
G54D16*
X226815Y614678D02*
X226815Y596900D01*
X236148Y596900D01*
G54D16*
X250370Y596900D02*
X241037Y596900D01*
X241037Y614678D01*
X250370Y614678D01*
G54D16*
X241037Y605789D02*
X250370Y605789D01*
M02*
