%FSLAX34Y34*%
%MOMM*%
%LNSOLDERMASK_BOTTOM*%
G71*
G01*
%ADD10C, 7.400*%
%ADD11C, 2.400*%
%ADD12C, 2.200*%
%ADD13C, 2.300*%
%ADD14C, 2.100*%
%ADD15R, 1.500X1.900*%
%ADD16R, 1.700X2.400*%
%ADD17C, 1.600*%
%ADD18R, 2.100X2.400*%
%ADD19C, 0.567*%
%ADD20R, 3.400X2.400*%
%ADD21R, 3.400X2.300*%
%LPD*%
X84137Y625475D02*
G54D10*
D03*
X84137Y104813D02*
G54D10*
D03*
X804862Y104813D02*
G54D10*
D03*
X804862Y625475D02*
G54D10*
D03*
X182562Y569612D02*
G54D11*
D03*
X207962Y569612D02*
G54D11*
D03*
X233362Y569612D02*
G54D11*
D03*
X258762Y569612D02*
G54D11*
D03*
X182562Y153687D02*
G54D11*
D03*
X207962Y153687D02*
G54D11*
D03*
X233362Y153688D02*
G54D11*
D03*
X258762Y153687D02*
G54D11*
D03*
X481012Y187362D02*
G54D11*
D03*
X481012Y212762D02*
G54D11*
D03*
X481012Y238162D02*
G54D11*
D03*
X481012Y263562D02*
G54D11*
D03*
X481012Y288962D02*
G54D11*
D03*
X481012Y314362D02*
G54D11*
D03*
X481012Y339762D02*
G54D11*
D03*
X481012Y365162D02*
G54D11*
D03*
X481012Y390562D02*
G54D11*
D03*
X481012Y415962D02*
G54D11*
D03*
X481012Y441362D02*
G54D11*
D03*
X481012Y466762D02*
G54D11*
D03*
X481012Y492162D02*
G54D11*
D03*
X481012Y517562D02*
G54D11*
D03*
X481012Y542962D02*
G54D11*
D03*
X328612Y187362D02*
G54D11*
D03*
X328612Y212762D02*
G54D11*
D03*
X328612Y238162D02*
G54D11*
D03*
X328612Y263562D02*
G54D11*
D03*
X328612Y288962D02*
G54D11*
D03*
X328612Y314362D02*
G54D11*
D03*
X328612Y339762D02*
G54D11*
D03*
X328612Y365162D02*
G54D11*
D03*
X328612Y390562D02*
G54D11*
D03*
X328612Y415962D02*
G54D11*
D03*
X328612Y441362D02*
G54D11*
D03*
X328612Y466762D02*
G54D11*
D03*
X328612Y492162D02*
G54D11*
D03*
X328612Y517562D02*
G54D11*
D03*
X328612Y542962D02*
G54D11*
D03*
X595312Y487400D02*
G54D11*
D03*
X595312Y462000D02*
G54D11*
D03*
X595312Y436600D02*
G54D11*
D03*
X595312Y411200D02*
G54D11*
D03*
X595312Y385800D02*
G54D11*
D03*
X595312Y360400D02*
G54D11*
D03*
X595312Y335000D02*
G54D11*
D03*
X94761Y322933D02*
G54D12*
D03*
X94761Y362933D02*
G54D12*
D03*
X94765Y539283D02*
G54D13*
D03*
G36*
X106265Y525383D02*
X106265Y502383D01*
X83265Y502383D01*
X83265Y525383D01*
X106265Y525383D01*
G37*
X94413Y204322D02*
G54D13*
D03*
G36*
X105913Y190422D02*
X105913Y167422D01*
X82913Y167422D01*
X82913Y190422D01*
X105913Y190422D01*
G37*
X94413Y229722D02*
G54D13*
D03*
X94413Y255122D02*
G54D13*
D03*
X747713Y487400D02*
G54D11*
D03*
X747713Y462000D02*
G54D11*
D03*
X747713Y436600D02*
G54D11*
D03*
X747713Y411200D02*
G54D11*
D03*
X747713Y385800D02*
G54D11*
D03*
X747713Y360400D02*
G54D11*
D03*
X747713Y335000D02*
G54D11*
D03*
G36*
X759713Y321600D02*
X759713Y297600D01*
X735713Y297600D01*
X735713Y321600D01*
X759713Y321600D01*
G37*
X595312Y309600D02*
G54D11*
D03*
X598414Y174577D02*
G54D14*
D03*
X623814Y174577D02*
G54D14*
D03*
X719064Y174577D02*
G54D14*
D03*
X744464Y174577D02*
G54D14*
D03*
X598329Y555651D02*
G54D14*
D03*
X598328Y530251D02*
G54D14*
D03*
X719064Y555577D02*
G54D14*
D03*
X744464Y555577D02*
G54D14*
D03*
X554715Y476368D02*
G54D15*
D03*
X535714Y476368D02*
G54D15*
D03*
X545214Y500155D02*
G54D15*
D03*
X802206Y336927D02*
G54D16*
D03*
X802206Y373440D02*
G54D16*
D03*
G36*
X643610Y408937D02*
X664610Y408937D01*
X664611Y384937D01*
X643611Y384937D01*
X643610Y408937D01*
G37*
G36*
X680917Y408936D02*
X701917Y408937D01*
X701917Y384937D01*
X680917Y384936D01*
X680917Y408936D01*
G37*
G36*
X643610Y459737D02*
X664610Y459737D01*
X664611Y435737D01*
X643611Y435737D01*
X643610Y459737D01*
G37*
G36*
X680917Y459736D02*
X701917Y459737D01*
X701917Y435737D01*
X680917Y435736D01*
X680917Y459736D01*
G37*
G36*
X643610Y354962D02*
X664610Y354962D01*
X664611Y330962D01*
X643611Y330962D01*
X643610Y354962D01*
G37*
G36*
X680917Y354961D02*
X701917Y354962D01*
X701917Y330962D01*
X680917Y330961D01*
X680917Y354961D01*
G37*
G36*
X646785Y231137D02*
X667785Y231137D01*
X667786Y207137D01*
X646786Y207137D01*
X646785Y231137D01*
G37*
G36*
X684092Y231136D02*
X705092Y231137D01*
X705092Y207137D01*
X684092Y207136D01*
X684092Y231136D01*
G37*
X579884Y628209D02*
G54D13*
D03*
G36*
X565984Y616709D02*
X542984Y616709D01*
X542984Y639709D01*
X565984Y639709D01*
X565984Y616709D01*
G37*
X534987Y358838D02*
G54D17*
D03*
X776287Y358838D02*
G54D17*
D03*
X563563Y449326D02*
G54D17*
D03*
X481013Y160401D02*
G54D17*
D03*
X722759Y628209D02*
G54D13*
D03*
G36*
X708859Y616709D02*
X685859Y616709D01*
X685859Y639709D01*
X708859Y639709D01*
X708859Y616709D01*
G37*
X801688Y255651D02*
G54D17*
D03*
X258763Y441389D02*
G54D17*
D03*
X508000Y466788D02*
G54D17*
D03*
X239904Y272390D02*
G54D18*
D03*
X202598Y272390D02*
G54D18*
D03*
G54D19*
X696912Y130571D02*
X691912Y135571D01*
X691912Y122238D01*
G54D19*
X680246Y133071D02*
X680246Y124738D01*
X681246Y123071D01*
X683246Y122238D01*
X685246Y122238D01*
X687246Y123071D01*
X688246Y124738D01*
X688246Y133071D01*
X687246Y134738D01*
X685246Y135571D01*
X683246Y135571D01*
X681246Y134738D01*
X680246Y133071D01*
G54D19*
X675778Y122238D02*
X676578Y122238D01*
X676578Y122904D01*
X675778Y122904D01*
X675778Y122238D01*
X676578Y122238D01*
G54D19*
X664112Y122238D02*
X672112Y122238D01*
X672112Y123071D01*
X671112Y124738D01*
X665112Y129738D01*
X664112Y131404D01*
X664112Y133071D01*
X665112Y134738D01*
X667112Y135571D01*
X669112Y135571D01*
X671112Y134738D01*
X672112Y133071D01*
G54D19*
X652444Y133071D02*
X652444Y124738D01*
X653444Y123071D01*
X655444Y122238D01*
X657444Y122238D01*
X659444Y123071D01*
X660444Y124738D01*
X660444Y133071D01*
X659444Y134738D01*
X657444Y135571D01*
X655444Y135571D01*
X653444Y134738D01*
X652444Y133071D01*
G54D19*
X640778Y122238D02*
X648778Y122238D01*
X648778Y123071D01*
X647778Y124738D01*
X641778Y129738D01*
X640778Y131404D01*
X640778Y133071D01*
X641778Y134738D01*
X643778Y135571D01*
X645778Y135571D01*
X647778Y134738D01*
X648778Y133071D01*
G54D19*
X629110Y133071D02*
X629110Y124738D01*
X630110Y123071D01*
X632110Y122238D01*
X634110Y122238D01*
X636110Y123071D01*
X637110Y124738D01*
X637110Y133071D01*
X636110Y134738D01*
X634110Y135571D01*
X632110Y135571D01*
X630110Y134738D01*
X629110Y133071D01*
G54D19*
X752475Y78621D02*
X750475Y77788D01*
X748475Y77788D01*
X746475Y78621D01*
X746475Y80288D01*
X747475Y81121D01*
X751475Y81954D01*
X752475Y82788D01*
X752475Y84454D01*
X750475Y85288D01*
X748475Y85288D01*
X746475Y84454D01*
G54D19*
X742808Y77788D02*
X742808Y85288D01*
G54D19*
X742808Y87788D02*
X742808Y87788D01*
G54D19*
X739141Y77788D02*
X739141Y85288D01*
G54D19*
X739141Y83954D02*
X737141Y85288D01*
X735141Y84788D01*
X734141Y83621D01*
X734141Y77788D01*
G54D19*
X734141Y83954D02*
X732141Y85288D01*
X730141Y84788D01*
X729141Y83621D01*
X729141Y77788D01*
G54D19*
X725474Y85288D02*
X725474Y74454D01*
G54D19*
X725474Y80288D02*
X724474Y78121D01*
X722474Y77788D01*
X720474Y78121D01*
X719474Y79788D01*
X719474Y83121D01*
X720474Y84788D01*
X722474Y85288D01*
X724474Y84788D01*
X725474Y82788D01*
G54D19*
X715807Y77788D02*
X715807Y91121D01*
G54D19*
X706140Y78621D02*
X707740Y77788D01*
X709740Y77788D01*
X711740Y78621D01*
X712140Y80288D01*
X712140Y83121D01*
X711140Y84788D01*
X709140Y85288D01*
X707140Y84788D01*
X706140Y83621D01*
X706140Y81954D01*
X712140Y81954D01*
G54D19*
X702473Y83621D02*
X694473Y83621D01*
G54D19*
X684806Y77788D02*
X684806Y91121D01*
G54D19*
X684806Y83121D02*
X685806Y84788D01*
X687806Y85288D01*
X689806Y84788D01*
X690806Y83121D01*
X690806Y79788D01*
X689806Y78121D01*
X687806Y77788D01*
X685806Y78121D01*
X684806Y79788D01*
G54D19*
X675139Y78621D02*
X676739Y77788D01*
X678739Y77788D01*
X680739Y78621D01*
X681139Y80288D01*
X681139Y83121D01*
X680139Y84788D01*
X678139Y85288D01*
X676139Y84788D01*
X675139Y83621D01*
X675139Y81954D01*
X681139Y81954D01*
G54D19*
X671472Y85288D02*
X667472Y77788D01*
X663472Y85288D01*
G54D19*
X659805Y77788D02*
X659805Y85288D01*
G54D19*
X659805Y87788D02*
X659805Y87788D01*
G54D19*
X651138Y84788D02*
X653138Y85288D01*
X655138Y84788D01*
X656138Y83121D01*
X656138Y79788D01*
X655138Y78121D01*
X653138Y77788D01*
X651138Y78121D01*
G54D19*
X641471Y78621D02*
X643071Y77788D01*
X645071Y77788D01*
X647071Y78621D01*
X647471Y80288D01*
X647471Y83121D01*
X646471Y84788D01*
X644471Y85288D01*
X642471Y84788D01*
X641471Y83621D01*
X641471Y81954D01*
X647471Y81954D01*
G54D19*
X637804Y78621D02*
X635804Y77788D01*
X633804Y77788D01*
X631804Y78621D01*
X631804Y80288D01*
X632804Y81121D01*
X636804Y81954D01*
X637804Y82788D01*
X637804Y84454D01*
X635804Y85288D01*
X633804Y85288D01*
X631804Y84454D01*
G54D19*
X621137Y78954D02*
X622537Y77788D01*
X625137Y77788D01*
X626937Y78954D01*
X628137Y80788D01*
X628137Y85621D01*
X626937Y87454D01*
X625137Y88288D01*
X622537Y88288D01*
X621137Y86788D01*
X621137Y81454D01*
G54D19*
X621537Y83454D02*
X621737Y84788D01*
X623737Y85621D01*
X625137Y84788D01*
X625537Y83454D01*
X625137Y81954D01*
X623737Y81121D01*
X621737Y81954D01*
X621537Y83454D01*
G54D19*
X617470Y77788D02*
X617470Y85288D01*
G54D19*
X617470Y83954D02*
X615470Y85288D01*
X613470Y84788D01*
X612470Y83621D01*
X612470Y77788D01*
G54D19*
X612470Y83954D02*
X610470Y85288D01*
X608470Y84788D01*
X607470Y83621D01*
X607470Y77788D01*
G54D19*
X603803Y84454D02*
X601803Y85288D01*
X599403Y85288D01*
X597803Y83621D01*
X597803Y77788D01*
G54D19*
X597803Y80288D02*
X598803Y81954D01*
X600803Y82288D01*
X602803Y81954D01*
X603803Y80288D01*
X603403Y78621D01*
X601803Y77788D01*
X600803Y77788D01*
X600403Y77788D01*
X598803Y78621D01*
X597803Y80288D01*
G54D19*
X594136Y77788D02*
X594136Y85288D01*
G54D19*
X594136Y87788D02*
X594136Y87788D01*
G54D19*
X590469Y77788D02*
X590469Y91121D01*
G54D19*
X586002Y77788D02*
X586802Y77788D01*
X586802Y78454D01*
X586002Y78454D01*
X586002Y77788D01*
X586802Y77788D01*
G54D19*
X582335Y77788D02*
X582335Y85288D01*
G54D19*
X582335Y83621D02*
X580335Y85288D01*
X578335Y85288D01*
G54D19*
X568668Y85288D02*
X568668Y77788D01*
G54D19*
X568668Y79454D02*
X569668Y78121D01*
X571668Y77788D01*
X573668Y78121D01*
X574668Y79454D01*
X574668Y85288D01*
X94413Y255121D02*
G54D13*
D03*
X94761Y322933D02*
G54D12*
D03*
X94765Y539283D02*
G54D13*
D03*
X404813Y119126D02*
G54D17*
D03*
X95279Y405463D02*
G54D20*
D03*
X95280Y466582D02*
G54D21*
D03*
X182562Y153687D02*
G54D11*
D03*
X471934Y628209D02*
G54D13*
D03*
G36*
X458034Y616709D02*
X435034Y616709D01*
X435034Y639709D01*
X458034Y639709D01*
X458034Y616709D01*
G37*
X382779Y615290D02*
G54D18*
D03*
X345473Y615290D02*
G54D18*
D03*
X471934Y628209D02*
G54D12*
D03*
X306388Y630301D02*
G54D17*
D03*
M02*
