%FSLAX34Y34*%
%MOMM*%
%LNSILK_BOTTOM*%
G71*
G01*
%ADD10C, 0.167*%
%ADD11C, 0.500*%
%ADD12C, 0.222*%
%ADD13C, 0.200*%
%ADD14C, 0.120*%
%ADD15C, 0.238*%
%ADD16C, 0.278*%
%ADD17C, 0.150*%
%LPD*%
G54D10*
X241434Y180122D02*
X228100Y180122D01*
X228100Y176789D01*
X228934Y175456D01*
X230601Y174789D01*
X232267Y174789D01*
X233934Y175456D01*
X234767Y176789D01*
X235601Y175456D01*
X237267Y174789D01*
X238934Y174789D01*
X240601Y175456D01*
X241434Y176789D01*
X241434Y180122D01*
G54D10*
X234767Y180122D02*
X234767Y176789D01*
G54D10*
X214980Y181019D02*
X201647Y177686D01*
X214980Y174352D01*
G54D10*
X209980Y179686D02*
X209980Y175686D01*
G54D10*
X182913Y191844D02*
X182913Y189178D01*
X187080Y189178D01*
X188747Y189844D01*
X189580Y191178D01*
X189580Y192511D01*
X188747Y193844D01*
X187080Y194511D01*
X178747Y194511D01*
X177080Y193844D01*
X176247Y192511D01*
X176247Y191178D01*
X177080Y189844D01*
X178747Y189178D01*
G54D10*
X189580Y185511D02*
X176247Y185511D01*
X189580Y180178D01*
X176247Y180178D01*
G54D10*
X189580Y176511D02*
X176247Y176511D01*
X176247Y173178D01*
X177080Y171844D01*
X178747Y171178D01*
X187080Y171178D01*
X188747Y171844D01*
X189580Y173178D01*
X189580Y176511D01*
G54D10*
X255620Y195811D02*
X268953Y192478D01*
X255620Y189145D01*
G54D10*
X266453Y180144D02*
X268120Y180811D01*
X268953Y182144D01*
X268953Y183477D01*
X268120Y184811D01*
X266453Y185477D01*
X258120Y185477D01*
X256453Y184811D01*
X255620Y183477D01*
X255620Y182144D01*
X256453Y180811D01*
X258120Y180144D01*
G54D10*
X266453Y171144D02*
X268120Y171810D01*
X268953Y173144D01*
X268953Y174477D01*
X268120Y175811D01*
X266453Y176477D01*
X258120Y176477D01*
X256453Y175811D01*
X255620Y174477D01*
X255620Y173144D01*
X256453Y171811D01*
X258120Y171144D01*
G54D10*
X259113Y547970D02*
X260779Y545970D01*
X262446Y545303D01*
X265779Y545303D01*
G54D10*
X265779Y550636D02*
X252446Y550636D01*
X252446Y547303D01*
X253279Y545970D01*
X254946Y545303D01*
X256613Y545303D01*
X258279Y545970D01*
X259113Y547303D01*
X259113Y550636D01*
G54D10*
X254946Y536303D02*
X263279Y536303D01*
X264946Y536970D01*
X265779Y538303D01*
X265779Y539636D01*
X264946Y540970D01*
X263279Y541636D01*
X254946Y541636D01*
X253279Y540970D01*
X252446Y539636D01*
X252446Y538303D01*
X253279Y536970D01*
X254946Y536303D01*
G54D10*
X233713Y547191D02*
X235379Y545191D01*
X237046Y544524D01*
X240379Y544524D01*
G54D10*
X240379Y549858D02*
X227046Y549858D01*
X227046Y546524D01*
X227879Y545191D01*
X229546Y544524D01*
X231213Y544524D01*
X232879Y545191D01*
X233713Y546524D01*
X233713Y549858D01*
G54D10*
X240379Y536191D02*
X240379Y540858D01*
X227046Y540858D01*
X227046Y536191D01*
G54D10*
X233713Y540858D02*
X233713Y536191D01*
G54D10*
X214979Y549858D02*
X201646Y549858D01*
X201646Y546524D01*
X202479Y545191D01*
X204146Y544524D01*
X212479Y544524D01*
X214146Y545191D01*
X214979Y546524D01*
X214979Y549858D01*
G54D10*
X214979Y536191D02*
X214979Y540858D01*
X201646Y540858D01*
X201646Y536191D01*
G54D10*
X208313Y540858D02*
X208313Y536191D01*
G54D10*
X189579Y550524D02*
X176246Y550524D01*
X176246Y547191D01*
X177079Y545858D01*
X178746Y545191D01*
X187079Y545191D01*
X188746Y545858D01*
X189579Y547191D01*
X189579Y550524D01*
G54D10*
X189579Y541524D02*
X189579Y536191D01*
G54D10*
X189579Y538858D02*
X176246Y538858D01*
G54D10*
X176246Y541524D02*
X176246Y536191D01*
G54D10*
X373869Y520182D02*
X370869Y518515D01*
X369869Y516849D01*
X369869Y513515D01*
G54D10*
X377869Y513515D02*
X377869Y526849D01*
X372869Y526849D01*
X370869Y526015D01*
X369869Y524349D01*
X369869Y522682D01*
X370869Y521015D01*
X372869Y520182D01*
X377869Y520182D01*
G54D10*
X366202Y526849D02*
X356202Y513515D01*
G54D10*
X366202Y513515D02*
X356202Y526849D01*
G54D10*
X344535Y524349D02*
X344535Y516015D01*
X345535Y514349D01*
X347535Y513515D01*
X349535Y513515D01*
X351535Y514349D01*
X352535Y516015D01*
X352535Y524349D01*
X351535Y526015D01*
X349535Y526849D01*
X347535Y526849D01*
X345535Y526015D01*
X344535Y524349D01*
G54D10*
X374155Y538915D02*
X374155Y552249D01*
G54D10*
X378155Y552249D02*
X370155Y552249D01*
G54D10*
X366488Y552249D02*
X356488Y538915D01*
G54D10*
X366488Y538915D02*
X356488Y552249D01*
G54D10*
X352821Y547249D02*
X347821Y552249D01*
X347821Y538915D01*
G54D10*
X377369Y181012D02*
X377369Y194345D01*
X372369Y194345D01*
X370369Y193512D01*
X369369Y191845D01*
X369369Y183512D01*
X370369Y181845D01*
X372369Y181012D01*
X377369Y181012D01*
G54D10*
X365702Y189345D02*
X360702Y194345D01*
X360702Y181012D01*
G54D10*
X349035Y181012D02*
X357035Y181012D01*
X357035Y181845D01*
X356035Y183512D01*
X350035Y188512D01*
X349035Y190178D01*
X349035Y191845D01*
X350035Y193512D01*
X352035Y194345D01*
X354035Y194345D01*
X356035Y193512D01*
X357035Y191845D01*
G54D10*
X374834Y492478D02*
X371834Y490812D01*
X370834Y489145D01*
X370834Y485812D01*
G54D10*
X378834Y485812D02*
X378834Y499145D01*
X373834Y499145D01*
X371834Y498312D01*
X370834Y496645D01*
X370834Y494978D01*
X371834Y493312D01*
X373834Y492478D01*
X378834Y492478D01*
G54D10*
X367167Y488312D02*
X366167Y486645D01*
X364167Y485812D01*
X362167Y485812D01*
X360167Y486645D01*
X359167Y488312D01*
X359167Y489978D01*
X360167Y491645D01*
X362167Y492478D01*
X364167Y492478D01*
X366167Y493312D01*
X367167Y494978D01*
X367167Y496645D01*
X366167Y498312D01*
X364167Y499145D01*
X362167Y499145D01*
X360167Y498312D01*
X359167Y496645D01*
G54D10*
X351500Y485812D02*
X351500Y499145D01*
G54D10*
X355500Y499145D02*
X347500Y499145D01*
G54D10*
X462698Y216121D02*
X461698Y217787D01*
X459698Y218621D01*
X457698Y218621D01*
X455698Y217787D01*
X454698Y216121D01*
X454698Y214454D01*
X455698Y212787D01*
X457698Y211954D01*
X455698Y211121D01*
X454698Y209454D01*
X454698Y207787D01*
X455698Y206121D01*
X457698Y205287D01*
X459698Y205287D01*
X461698Y206121D01*
X462698Y207787D01*
G54D10*
X451031Y218621D02*
X446031Y205287D01*
X441031Y218621D01*
G54D10*
X437364Y216121D02*
X436364Y217787D01*
X434364Y218621D01*
X432364Y218621D01*
X430364Y217787D01*
X429364Y216121D01*
X429364Y214454D01*
X430364Y212787D01*
X432364Y211954D01*
X430364Y211121D01*
X429364Y209454D01*
X429364Y207787D01*
X430364Y206121D01*
X432364Y205287D01*
X434364Y205287D01*
X436364Y206121D01*
X437364Y207787D01*
G54D10*
X458341Y231674D02*
X453341Y245008D01*
X448341Y231674D01*
G54D10*
X456341Y236674D02*
X450341Y236674D01*
G54D10*
X444674Y231674D02*
X444674Y245008D01*
X437674Y245008D01*
G54D10*
X444674Y238341D02*
X437674Y238341D01*
G54D10*
X459722Y259872D02*
X454722Y273206D01*
X449722Y259872D01*
G54D10*
X457722Y264872D02*
X451722Y264872D01*
G54D10*
X438055Y270706D02*
X438055Y262372D01*
X439055Y260706D01*
X441055Y259872D01*
X443055Y259872D01*
X445055Y260706D01*
X446055Y262372D01*
X446055Y270706D01*
X445055Y272372D01*
X443055Y273206D01*
X441055Y273206D01*
X439055Y272372D01*
X438055Y270706D01*
G54D10*
X459667Y285219D02*
X454667Y298552D01*
X449667Y285219D01*
G54D10*
X457667Y290219D02*
X451667Y290219D01*
G54D10*
X446000Y293552D02*
X441000Y298552D01*
X441000Y285219D01*
G54D10*
X459667Y310619D02*
X454667Y323952D01*
X449667Y310619D01*
G54D10*
X457667Y315619D02*
X451667Y315619D01*
G54D10*
X438000Y310619D02*
X446000Y310619D01*
X446000Y311452D01*
X445000Y313119D01*
X439000Y318119D01*
X438000Y319785D01*
X438000Y321452D01*
X439000Y323119D01*
X441000Y323952D01*
X443000Y323952D01*
X445000Y323119D01*
X446000Y321452D01*
G54D10*
X459667Y336019D02*
X454667Y349352D01*
X449667Y336019D01*
G54D10*
X457667Y341019D02*
X451667Y341019D01*
G54D10*
X446000Y346852D02*
X445000Y348519D01*
X443000Y349352D01*
X441000Y349352D01*
X439000Y348519D01*
X438000Y346852D01*
X438000Y345185D01*
X439000Y343519D01*
X441000Y342685D01*
X439000Y341852D01*
X438000Y340185D01*
X438000Y338519D01*
X439000Y336852D01*
X441000Y336019D01*
X443000Y336019D01*
X445000Y336852D01*
X446000Y338519D01*
G54D10*
X459668Y361419D02*
X454668Y374753D01*
X449668Y361419D01*
G54D10*
X457668Y366419D02*
X451668Y366419D01*
G54D10*
X440001Y361419D02*
X440001Y374753D01*
X446001Y366419D01*
X446001Y364753D01*
X438001Y364753D01*
G54D10*
X459667Y386819D02*
X454667Y400152D01*
X449667Y386819D01*
G54D10*
X457667Y391819D02*
X451667Y391819D01*
G54D10*
X438000Y400152D02*
X446000Y400152D01*
X446000Y394319D01*
X445000Y394319D01*
X443000Y395152D01*
X441000Y395152D01*
X439000Y394319D01*
X438000Y392652D01*
X438000Y389319D01*
X439000Y387652D01*
X441000Y386819D01*
X443000Y386819D01*
X445000Y387652D01*
X446000Y389319D01*
G54D10*
X459667Y412219D02*
X454667Y425552D01*
X449667Y412219D01*
G54D10*
X457667Y417219D02*
X451667Y417219D01*
G54D10*
X438000Y423052D02*
X439000Y424719D01*
X441000Y425552D01*
X443000Y425552D01*
X445000Y424719D01*
X446000Y423052D01*
X446000Y418885D01*
X446000Y418052D01*
X443000Y419719D01*
X441000Y419719D01*
X439000Y418885D01*
X438000Y417219D01*
X438000Y414719D01*
X439000Y413052D01*
X441000Y412219D01*
X443000Y412219D01*
X445000Y413052D01*
X446000Y414719D01*
X446000Y418885D01*
G54D10*
X459668Y437619D02*
X454668Y450952D01*
X449668Y437619D01*
G54D10*
X457668Y442619D02*
X451668Y442619D01*
G54D10*
X446001Y450952D02*
X438001Y450952D01*
X439001Y449285D01*
X441001Y446785D01*
X443001Y443452D01*
X444001Y440952D01*
X444001Y437619D01*
G54D10*
X449370Y474054D02*
X457370Y474054D01*
X457370Y468220D01*
X456370Y468220D01*
X454370Y469054D01*
X452370Y469054D01*
X450370Y468220D01*
X449370Y466554D01*
X449370Y463220D01*
X450370Y461554D01*
X452370Y460720D01*
X454370Y460720D01*
X456370Y461554D01*
X457370Y463220D01*
G54D10*
X445703Y474054D02*
X440703Y460720D01*
X435703Y474054D01*
G54D10*
X456527Y492788D02*
X453527Y491121D01*
X452527Y489455D01*
X452527Y486121D01*
G54D10*
X460527Y486121D02*
X460527Y499455D01*
X455527Y499455D01*
X453527Y498621D01*
X452527Y496955D01*
X452527Y495288D01*
X453527Y493621D01*
X455527Y492788D01*
X460527Y492788D01*
G54D10*
X448860Y488621D02*
X447860Y486955D01*
X445860Y486121D01*
X443860Y486121D01*
X441860Y486955D01*
X440860Y488621D01*
X440860Y490288D01*
X441860Y491955D01*
X443860Y492788D01*
X445860Y492788D01*
X447860Y493621D01*
X448860Y495288D01*
X448860Y496955D01*
X447860Y498621D01*
X445860Y499455D01*
X443860Y499455D01*
X441860Y498621D01*
X440860Y496955D01*
G54D10*
X433193Y486121D02*
X433193Y499455D01*
G54D10*
X437193Y499455D02*
X429193Y499455D01*
G54D10*
X459701Y518188D02*
X455701Y518188D01*
X455701Y514021D01*
X456701Y512355D01*
X458701Y511521D01*
X460701Y511521D01*
X462701Y512355D01*
X463701Y514021D01*
X463701Y522355D01*
X462701Y524021D01*
X460701Y524855D01*
X458701Y524855D01*
X456701Y524021D01*
X455701Y522355D01*
G54D10*
X452034Y511521D02*
X452034Y524855D01*
X444034Y511521D01*
X444034Y524855D01*
G54D10*
X440367Y511521D02*
X440367Y524855D01*
X435367Y524855D01*
X433367Y524021D01*
X432367Y522355D01*
X432367Y514021D01*
X433367Y512355D01*
X435367Y511521D01*
X440367Y511521D01*
G54D10*
X460526Y550255D02*
X455526Y536921D01*
X450526Y550255D01*
G54D10*
X446859Y536921D02*
X446859Y544421D01*
G54D10*
X446859Y546921D02*
X446859Y546921D01*
G54D10*
X443192Y536921D02*
X443192Y544421D01*
G54D10*
X443192Y542755D02*
X442192Y543921D01*
X440192Y544421D01*
X438192Y543921D01*
X437192Y542755D01*
X437192Y536921D01*
G54D10*
X377369Y206412D02*
X377369Y219745D01*
X372369Y219745D01*
X370369Y218912D01*
X369369Y217245D01*
X369369Y208912D01*
X370369Y207245D01*
X372369Y206412D01*
X377369Y206412D01*
G54D10*
X365702Y214745D02*
X360702Y219745D01*
X360702Y206412D01*
G54D10*
X357035Y214745D02*
X352035Y219745D01*
X352035Y206412D01*
G54D10*
X379121Y231812D02*
X379121Y245145D01*
X374121Y245145D01*
X372121Y244312D01*
X371121Y242645D01*
X371121Y234312D01*
X372121Y232645D01*
X374121Y231812D01*
X379121Y231812D01*
G54D10*
X367454Y240145D02*
X362454Y245145D01*
X362454Y231812D01*
G54D10*
X350787Y242645D02*
X350787Y234312D01*
X351787Y232645D01*
X353787Y231812D01*
X355787Y231812D01*
X357787Y232645D01*
X358787Y234312D01*
X358787Y242645D01*
X357787Y244312D01*
X355787Y245145D01*
X353787Y245145D01*
X351787Y244312D01*
X350787Y242645D01*
G54D10*
X369421Y257212D02*
X369421Y270545D01*
X364421Y270545D01*
X362421Y269712D01*
X361421Y268045D01*
X361421Y259712D01*
X362421Y258045D01*
X364421Y257212D01*
X369421Y257212D01*
G54D10*
X357754Y259712D02*
X356754Y258045D01*
X354754Y257212D01*
X352754Y257212D01*
X350754Y258045D01*
X349754Y259712D01*
X349754Y263878D01*
X349754Y264712D01*
X352754Y263045D01*
X354754Y263045D01*
X356754Y263878D01*
X357754Y265545D01*
X357754Y268045D01*
X356754Y269712D01*
X354754Y270545D01*
X352754Y270545D01*
X350754Y269712D01*
X349754Y268045D01*
X349754Y263878D01*
G54D10*
X369421Y282612D02*
X369421Y295946D01*
X364421Y295946D01*
X362421Y295112D01*
X361421Y293446D01*
X361421Y285112D01*
X362421Y283446D01*
X364421Y282612D01*
X369421Y282612D01*
G54D10*
X352754Y289279D02*
X354754Y289279D01*
X356754Y290112D01*
X357754Y291779D01*
X357754Y293446D01*
X356754Y295112D01*
X354754Y295946D01*
X352754Y295946D01*
X350754Y295112D01*
X349754Y293446D01*
X349754Y291779D01*
X350754Y290112D01*
X352754Y289279D01*
X350754Y288446D01*
X349754Y286779D01*
X349754Y285112D01*
X350754Y283446D01*
X352754Y282612D01*
X354754Y282612D01*
X356754Y283446D01*
X357754Y285112D01*
X357754Y286779D01*
X356754Y288446D01*
X354754Y289279D01*
G54D10*
X369316Y308012D02*
X369316Y321345D01*
X364316Y321345D01*
X362316Y320512D01*
X361316Y318845D01*
X361316Y310512D01*
X362316Y308845D01*
X364316Y308012D01*
X369316Y308012D01*
G54D10*
X357649Y321345D02*
X349649Y321345D01*
X350649Y319678D01*
X352649Y317178D01*
X354649Y313845D01*
X355649Y311345D01*
X355649Y308012D01*
G54D10*
X369421Y333412D02*
X369421Y346745D01*
X364421Y346745D01*
X362421Y345912D01*
X361421Y344245D01*
X361421Y335912D01*
X362421Y334245D01*
X364421Y333412D01*
X369421Y333412D01*
G54D10*
X349754Y344245D02*
X350754Y345912D01*
X352754Y346745D01*
X354754Y346745D01*
X356754Y345912D01*
X357754Y344245D01*
X357754Y340078D01*
X357754Y339245D01*
X354754Y340912D01*
X352754Y340912D01*
X350754Y340078D01*
X349754Y338412D01*
X349754Y335912D01*
X350754Y334245D01*
X352754Y333412D01*
X354754Y333412D01*
X356754Y334245D01*
X357754Y335912D01*
X357754Y340078D01*
G54D10*
X369421Y358812D02*
X369421Y372145D01*
X364421Y372145D01*
X362421Y371312D01*
X361421Y369645D01*
X361421Y361312D01*
X362421Y359645D01*
X364421Y358812D01*
X369421Y358812D01*
G54D10*
X349754Y372145D02*
X357754Y372145D01*
X357754Y366312D01*
X356754Y366312D01*
X354754Y367145D01*
X352754Y367145D01*
X350754Y366312D01*
X349754Y364645D01*
X349754Y361312D01*
X350754Y359645D01*
X352754Y358812D01*
X354754Y358812D01*
X356754Y359645D01*
X357754Y361312D01*
G54D10*
X369309Y384212D02*
X369309Y397545D01*
X364309Y397545D01*
X362309Y396712D01*
X361309Y395045D01*
X361309Y386712D01*
X362309Y385045D01*
X364309Y384212D01*
X369309Y384212D01*
G54D10*
X351642Y384212D02*
X351642Y397545D01*
X357642Y389212D01*
X357642Y387545D01*
X349642Y387545D01*
G54D10*
X369421Y409612D02*
X369421Y422945D01*
X364421Y422945D01*
X362421Y422112D01*
X361421Y420445D01*
X361421Y412112D01*
X362421Y410445D01*
X364421Y409612D01*
X369421Y409612D01*
G54D10*
X357754Y420445D02*
X356754Y422112D01*
X354754Y422945D01*
X352754Y422945D01*
X350754Y422112D01*
X349754Y420445D01*
X349754Y418778D01*
X350754Y417112D01*
X352754Y416278D01*
X350754Y415445D01*
X349754Y413778D01*
X349754Y412112D01*
X350754Y410445D01*
X352754Y409612D01*
X354754Y409612D01*
X356754Y410445D01*
X357754Y412112D01*
G54D10*
X369421Y435012D02*
X369421Y448345D01*
X364421Y448345D01*
X362421Y447512D01*
X361421Y445845D01*
X361421Y437512D01*
X362421Y435845D01*
X364421Y435012D01*
X369421Y435012D01*
G54D10*
X349754Y435012D02*
X357754Y435012D01*
X357754Y435845D01*
X356754Y437512D01*
X350754Y442512D01*
X349754Y444178D01*
X349754Y445845D01*
X350754Y447512D01*
X352754Y448345D01*
X354754Y448345D01*
X356754Y447512D01*
X357754Y445845D01*
G54D10*
X376496Y465528D02*
X372496Y465528D01*
X372496Y461362D01*
X373496Y459695D01*
X375496Y458862D01*
X377496Y458862D01*
X379496Y459695D01*
X380496Y461362D01*
X380496Y469695D01*
X379496Y471362D01*
X377496Y472195D01*
X375496Y472195D01*
X373496Y471362D01*
X372496Y469695D01*
G54D10*
X368829Y458862D02*
X368829Y472195D01*
X360829Y458862D01*
X360829Y472195D01*
G54D10*
X357162Y458862D02*
X357162Y472195D01*
X352162Y472195D01*
X350162Y471362D01*
X349162Y469695D01*
X349162Y461362D01*
X350162Y459695D01*
X352162Y458862D01*
X357162Y458862D01*
G54D10*
X459619Y177837D02*
X459619Y191170D01*
X454619Y191170D01*
X452619Y190337D01*
X451619Y188670D01*
X451619Y180337D01*
X452619Y178670D01*
X454619Y177837D01*
X459619Y177837D01*
G54D10*
X447952Y186170D02*
X442952Y191170D01*
X442952Y177837D01*
G54D10*
X439285Y188670D02*
X438285Y190337D01*
X436285Y191170D01*
X434285Y191170D01*
X432285Y190337D01*
X431285Y188670D01*
X431285Y187003D01*
X432285Y185337D01*
X434285Y184503D01*
X432285Y183670D01*
X431285Y182003D01*
X431285Y180337D01*
X432285Y178670D01*
X434285Y177837D01*
X436285Y177837D01*
X438285Y178670D01*
X439285Y180337D01*
G54D11*
X314325Y581025D02*
X495300Y581025D01*
X495300Y149225D01*
X314325Y149225D01*
X314325Y581025D01*
G36*
X381000Y171450D02*
X381000Y149225D01*
X428625Y149225D01*
X428625Y171450D01*
X381000Y171450D01*
G37*
G54D11*
X381000Y171450D02*
X381000Y149225D01*
X428625Y149225D01*
X428625Y171450D01*
X381000Y171450D01*
G54D12*
X406484Y495046D02*
X408706Y489712D01*
X410928Y487935D01*
X415373Y487935D01*
G54D12*
X415373Y502157D02*
X397595Y502157D01*
X397595Y493268D01*
X398706Y489712D01*
X400928Y487935D01*
X403150Y487935D01*
X405373Y489712D01*
X406484Y493268D01*
X406484Y502157D01*
G54D12*
X400928Y468824D02*
X412039Y468824D01*
X414262Y470601D01*
X415373Y474157D01*
X415373Y477712D01*
X414262Y481268D01*
X412039Y483046D01*
X400928Y483046D01*
X398706Y481268D01*
X397595Y477712D01*
X397595Y474157D01*
X398706Y470601D01*
X400928Y468824D01*
G54D12*
X415373Y463935D02*
X397595Y463935D01*
X397595Y455046D01*
X398706Y451490D01*
X400928Y449713D01*
X403150Y449713D01*
X405373Y451490D01*
X406484Y455046D01*
X407595Y451490D01*
X409817Y449713D01*
X412039Y449713D01*
X414262Y451490D01*
X415373Y455046D01*
X415373Y463935D01*
G54D12*
X406484Y463935D02*
X406484Y455046D01*
G54D12*
X400928Y430602D02*
X412039Y430602D01*
X414262Y432379D01*
X415373Y435935D01*
X415373Y439490D01*
X414262Y443046D01*
X412039Y444824D01*
X400928Y444824D01*
X398706Y443046D01*
X397595Y439490D01*
X397595Y435935D01*
X398706Y432379D01*
X400928Y430602D01*
G54D12*
X415373Y418602D02*
X397595Y418602D01*
G54D12*
X397595Y425713D02*
X397595Y411491D01*
G54D12*
X415373Y406602D02*
X397595Y406602D01*
X397595Y397713D01*
X398706Y394157D01*
X400928Y392380D01*
X412039Y392380D01*
X414262Y394157D01*
X415373Y397713D01*
X415373Y406602D01*
G54D12*
X397595Y387491D02*
X406484Y378602D01*
X415373Y378602D01*
G54D12*
X406484Y378602D02*
X397595Y369713D01*
G54D12*
X415373Y364824D02*
X397595Y364824D01*
X415373Y350602D01*
X397595Y350602D01*
G54D12*
X415373Y340468D02*
X397595Y340468D01*
X415373Y326246D01*
X397595Y326246D01*
G54D12*
X415373Y321357D02*
X397595Y312468D01*
X415373Y303579D01*
G54D12*
X408706Y317801D02*
X408706Y307135D01*
G54D12*
X415373Y298690D02*
X397595Y298690D01*
X415373Y284468D01*
X397595Y284468D01*
G54D12*
X400928Y265357D02*
X412039Y265357D01*
X414262Y267134D01*
X415373Y270690D01*
X415373Y274246D01*
X414262Y277801D01*
X412039Y279579D01*
X400928Y279579D01*
X398706Y277801D01*
X397595Y274246D01*
X397595Y270690D01*
X398706Y267134D01*
X400928Y265357D01*
G54D12*
X397595Y255223D02*
X415373Y246334D01*
X397595Y237445D01*
G54D12*
X400928Y232556D02*
X398706Y230778D01*
X397595Y227223D01*
X397595Y223667D01*
X398706Y220111D01*
X400928Y218334D01*
X403150Y218334D01*
X405373Y220111D01*
X406484Y223667D01*
X407595Y220111D01*
X409817Y218334D01*
X412039Y218334D01*
X414262Y220111D01*
X415373Y223667D01*
X415373Y227223D01*
X414262Y230778D01*
X412039Y232556D01*
G54D10*
X725704Y358459D02*
X723038Y358459D01*
X723038Y354292D01*
X723704Y352625D01*
X725038Y351792D01*
X726371Y351792D01*
X727704Y352625D01*
X728371Y354292D01*
X728371Y362625D01*
X727704Y364292D01*
X726371Y365125D01*
X725038Y365125D01*
X723704Y364292D01*
X723038Y362625D01*
G54D10*
X719371Y351792D02*
X719371Y365125D01*
X714038Y351792D01*
X714038Y365125D01*
G54D10*
X710371Y351792D02*
X710371Y365125D01*
X707038Y365125D01*
X705704Y364292D01*
X705038Y362625D01*
X705038Y354292D01*
X705704Y352625D01*
X707038Y351792D01*
X710371Y351792D01*
G54D10*
X729404Y484467D02*
X728737Y482800D01*
X727404Y481967D01*
X726071Y481967D01*
X724737Y482800D01*
X724071Y484467D01*
X724071Y486134D01*
X724737Y487800D01*
X726071Y488634D01*
X727404Y488634D01*
X728737Y489467D01*
X729404Y491134D01*
X729404Y492800D01*
X728737Y494467D01*
X727404Y495300D01*
X726071Y495300D01*
X724737Y494467D01*
X724071Y492800D01*
G54D10*
X720404Y481967D02*
X720404Y495300D01*
X717071Y495300D01*
X715737Y494467D01*
X715071Y492800D01*
X715071Y491134D01*
X715737Y489467D01*
X717071Y488634D01*
X720404Y488634D01*
G54D10*
X711404Y487800D02*
X706071Y487800D01*
G54D10*
X708737Y491134D02*
X708737Y484467D01*
G54D10*
X627484Y300992D02*
X627484Y314325D01*
X624151Y314325D01*
X622817Y313492D01*
X622151Y311825D01*
X622151Y310159D01*
X622817Y308492D01*
X624151Y307659D01*
X622817Y306825D01*
X622151Y305159D01*
X622151Y303492D01*
X622817Y301825D01*
X624151Y300992D01*
X627484Y300992D01*
G54D10*
X627484Y307659D02*
X624151Y307659D01*
G54D10*
X618484Y303492D02*
X617817Y301825D01*
X616484Y300992D01*
X615151Y300992D01*
X613817Y301825D01*
X613151Y303492D01*
X613151Y305159D01*
X613817Y306825D01*
X615151Y307659D01*
X616484Y307659D01*
X617817Y308492D01*
X618484Y310159D01*
X618484Y311825D01*
X617817Y313492D01*
X616484Y314325D01*
X615151Y314325D01*
X613817Y313492D01*
X613151Y311825D01*
G54D10*
X728269Y383025D02*
X722936Y383025D01*
G54D10*
X725602Y386359D02*
X725602Y379692D01*
G54D10*
X719269Y390525D02*
X715936Y377192D01*
X712602Y390525D01*
G54D10*
X727054Y444500D02*
X727054Y431167D01*
X720054Y431167D01*
G54D13*
X105461Y343433D02*
X105461Y346633D01*
X85461Y346633D01*
X85461Y343433D01*
X105461Y343433D01*
G54D13*
X105461Y340233D02*
X85461Y340233D01*
G54D13*
G75*
G01X134761Y342933D02*
G03X134761Y342933I-40000J0D01*
G01*
G54D13*
X94761Y339933D02*
X94761Y332933D01*
G54D13*
X94761Y346933D02*
X94761Y352933D01*
G54D14*
X72561Y368933D02*
X72561Y358233D01*
G54D14*
X76961Y363633D02*
X68061Y363633D01*
G54D11*
X117743Y495362D02*
X73293Y495362D01*
X73293Y558862D01*
X117743Y558862D01*
X117743Y495362D01*
G54D11*
X117391Y160400D02*
X72941Y160400D01*
X72941Y273112D01*
X117391Y273112D01*
X117391Y160400D01*
G54D10*
X109389Y293562D02*
X99389Y280228D01*
G54D10*
X109389Y280228D02*
X99389Y293562D01*
G54D10*
X95722Y280228D02*
X95722Y293562D01*
X90722Y293562D01*
X88722Y292728D01*
X87722Y291062D01*
X87722Y289395D01*
X88722Y287728D01*
X90722Y286895D01*
X95722Y286895D01*
G54D10*
X84055Y288562D02*
X79055Y293562D01*
X79055Y280228D01*
G54D10*
X110918Y581644D02*
X100918Y568311D01*
G54D10*
X110918Y568311D02*
X100918Y581644D01*
G54D10*
X97251Y568311D02*
X97251Y581644D01*
X92251Y581644D01*
X90251Y580811D01*
X89251Y579144D01*
X89251Y577478D01*
X90251Y575811D01*
X92251Y574978D01*
X97251Y574978D01*
G54D10*
X77584Y568311D02*
X85584Y568311D01*
X85584Y569144D01*
X84584Y570811D01*
X78584Y575811D01*
X77584Y577478D01*
X77584Y579144D01*
X78584Y580811D01*
X80584Y581644D01*
X82584Y581644D01*
X84584Y580811D01*
X85584Y579144D01*
G54D10*
X729404Y459067D02*
X728737Y457400D01*
X727404Y456567D01*
X726071Y456567D01*
X724737Y457400D01*
X724071Y459067D01*
X724071Y460734D01*
X724737Y462400D01*
X726071Y463234D01*
X727404Y463234D01*
X728737Y464067D01*
X729404Y465734D01*
X729404Y467400D01*
X728737Y469067D01*
X727404Y469900D01*
X726071Y469900D01*
X724737Y469067D01*
X724071Y467400D01*
G54D10*
X720404Y456567D02*
X720404Y469900D01*
X717071Y469900D01*
X715737Y469067D01*
X715071Y467400D01*
X715071Y465734D01*
X715737Y464067D01*
X717071Y463234D01*
X720404Y463234D01*
G54D10*
X711404Y462400D02*
X706071Y462400D01*
G54D10*
X726229Y409259D02*
X723229Y407592D01*
X722229Y405925D01*
X722229Y402592D01*
G54D10*
X730229Y402592D02*
X730229Y415925D01*
X725229Y415925D01*
X723229Y415092D01*
X722229Y413425D01*
X722229Y411759D01*
X723229Y410092D01*
X725229Y409259D01*
X730229Y409259D01*
G54D10*
X726694Y326394D02*
X726694Y339727D01*
G54D10*
X729361Y339727D02*
X724028Y339727D01*
G54D10*
X720361Y339727D02*
X713694Y326394D01*
G54D10*
X720361Y326394D02*
X713694Y339727D01*
G54D10*
X726694Y307661D02*
X724694Y305994D01*
X724028Y304327D01*
X724028Y300994D01*
G54D10*
X729361Y300994D02*
X729361Y314327D01*
X726028Y314327D01*
X724694Y313494D01*
X724028Y311827D01*
X724028Y310161D01*
X724694Y308494D01*
X726028Y307661D01*
X729361Y307661D01*
G54D10*
X720361Y314327D02*
X713694Y300994D01*
G54D10*
X720361Y300994D02*
X713694Y314327D01*
G54D10*
X635306Y326392D02*
X631973Y339725D01*
X628639Y326392D01*
G54D10*
X633973Y331392D02*
X629973Y331392D01*
G54D10*
X624972Y326392D02*
X624972Y339725D01*
X621639Y339725D01*
X620305Y338892D01*
X619639Y337225D01*
X619639Y328892D01*
X620305Y327225D01*
X621639Y326392D01*
X624972Y326392D01*
G54D10*
X615972Y326392D02*
X615972Y339725D01*
G54D10*
X615972Y330559D02*
X610639Y339725D01*
G54D10*
X613972Y333059D02*
X610639Y326392D01*
G54D10*
X624309Y377192D02*
X624309Y390525D01*
G54D10*
X624309Y381359D02*
X618976Y390525D01*
G54D10*
X622309Y383859D02*
X618976Y377192D01*
G54D10*
X609976Y390525D02*
X615309Y390525D01*
X615309Y384692D01*
X614642Y384692D01*
X613309Y385525D01*
X611976Y385525D01*
X610642Y384692D01*
X609976Y383025D01*
X609976Y379692D01*
X610642Y378025D01*
X611976Y377192D01*
X613309Y377192D01*
X614642Y378025D01*
X615309Y379692D01*
G54D10*
X624309Y402592D02*
X624309Y415925D01*
G54D10*
X624309Y406759D02*
X618976Y415925D01*
G54D10*
X622309Y409259D02*
X618976Y402592D01*
G54D10*
X611309Y402592D02*
X611309Y415925D01*
X615309Y407592D01*
X615309Y405925D01*
X609976Y405925D01*
G54D10*
X624309Y427992D02*
X624309Y441325D01*
G54D10*
X624309Y432159D02*
X618976Y441325D01*
G54D10*
X622309Y434659D02*
X618976Y427992D01*
G54D10*
X615309Y438825D02*
X614642Y440492D01*
X613309Y441325D01*
X611976Y441325D01*
X610642Y440492D01*
X609976Y438825D01*
X609976Y437159D01*
X610642Y435492D01*
X611976Y434659D01*
X610642Y433825D01*
X609976Y432159D01*
X609976Y430492D01*
X610642Y428825D01*
X611976Y427992D01*
X613309Y427992D01*
X614642Y428825D01*
X615309Y430492D01*
G54D10*
X624309Y453392D02*
X624309Y466725D01*
G54D10*
X624309Y457559D02*
X618976Y466725D01*
G54D10*
X622309Y460059D02*
X618976Y453392D01*
G54D10*
X609976Y453392D02*
X615309Y453392D01*
X615309Y454225D01*
X614642Y455892D01*
X610642Y460892D01*
X609976Y462559D01*
X609976Y464225D01*
X610642Y465892D01*
X611976Y466725D01*
X613309Y466725D01*
X614642Y465892D01*
X615309Y464225D01*
G54D10*
X624809Y478786D02*
X624809Y492120D01*
G54D10*
X624809Y482953D02*
X619476Y492120D01*
G54D10*
X622809Y485453D02*
X619476Y478786D01*
G54D10*
X615809Y487120D02*
X612476Y492120D01*
X612476Y478786D01*
G54D10*
X633008Y358459D02*
X630342Y358459D01*
X630342Y354292D01*
X631008Y352625D01*
X632342Y351792D01*
X633675Y351792D01*
X635008Y352625D01*
X635675Y354292D01*
X635675Y362625D01*
X635008Y364292D01*
X633675Y365125D01*
X632342Y365125D01*
X631008Y364292D01*
X630342Y362625D01*
G54D10*
X626675Y351792D02*
X626675Y365125D01*
X621342Y351792D01*
X621342Y365125D01*
G54D10*
X617675Y351792D02*
X617675Y365125D01*
X614342Y365125D01*
X613008Y364292D01*
X612342Y362625D01*
X612342Y354292D01*
X613008Y352625D01*
X614342Y351792D01*
X617675Y351792D01*
G54D11*
X577850Y511175D02*
X765175Y511175D01*
X765175Y285750D01*
X577850Y285750D01*
X577850Y511175D01*
G36*
X650875Y285750D02*
X650875Y307975D01*
X698500Y307975D01*
X698500Y285750D01*
X650875Y285750D01*
G37*
G54D11*
X650875Y285750D02*
X650875Y307975D01*
X698500Y307975D01*
X698500Y285750D01*
X650875Y285750D01*
G54D11*
X519112Y581025D02*
X820738Y581025D01*
X823912Y149225D01*
X519112Y149225D01*
X519112Y581025D01*
G54D15*
X754768Y195700D02*
X746768Y195700D01*
G54D15*
X737234Y203200D02*
X732234Y189867D01*
X727234Y203200D01*
G54D15*
X717700Y195700D02*
X709700Y195700D01*
G54D15*
X713700Y199034D02*
X713700Y192367D01*
G54D15*
X641610Y195700D02*
X633610Y195700D01*
G54D15*
X624076Y192367D02*
X623076Y190700D01*
X621076Y189867D01*
X619076Y189867D01*
X617076Y190700D01*
X616076Y192367D01*
X616076Y194034D01*
X617076Y195700D01*
X619076Y196534D01*
X621076Y196534D01*
X623076Y197367D01*
X624076Y199034D01*
X624076Y200700D01*
X623076Y202367D01*
X621076Y203200D01*
X619076Y203200D01*
X617076Y202367D01*
X616076Y200700D01*
G54D15*
X611409Y189867D02*
X611409Y203200D01*
X606409Y203200D01*
X604409Y202367D01*
X603409Y200700D01*
X603409Y199034D01*
X604409Y197367D01*
X606409Y196534D01*
X611409Y196534D01*
G54D15*
X593875Y195700D02*
X585875Y195700D01*
G54D15*
X589875Y199034D02*
X589875Y192367D01*
G54D15*
X759085Y532250D02*
X751085Y532250D01*
G54D15*
X755085Y535584D02*
X755085Y528917D01*
G54D15*
X741551Y526417D02*
X733551Y526417D01*
G54D15*
X737551Y526417D02*
X737551Y539750D01*
G54D15*
X741551Y539750D02*
X733551Y539750D01*
G54D15*
X728884Y526417D02*
X728884Y539750D01*
X720884Y526417D01*
X720884Y539750D01*
G54D15*
X711350Y532250D02*
X703350Y532250D01*
G54D15*
X620153Y565505D02*
X620153Y560172D01*
G54D15*
X615153Y550172D02*
X623486Y550172D01*
X625153Y550838D01*
X625986Y552172D01*
X625986Y553505D01*
X625153Y554838D01*
X623486Y555505D01*
X615153Y555505D01*
X613486Y554838D01*
X612653Y553505D01*
X612653Y552172D01*
X613486Y550838D01*
X615153Y550172D01*
G54D15*
X625986Y545505D02*
X612653Y545505D01*
X612653Y540838D01*
G54D15*
X619320Y545505D02*
X619320Y540838D01*
G54D15*
X625986Y536171D02*
X612653Y536171D01*
X612653Y531504D01*
G54D15*
X619320Y536171D02*
X619320Y531504D01*
G54D15*
X620153Y526837D02*
X620153Y521504D01*
G54D15*
X616820Y524170D02*
X623486Y524170D01*
G54D10*
X124586Y385202D02*
X125586Y383535D01*
X127586Y382702D01*
X129586Y382702D01*
X131586Y383535D01*
X132586Y385202D01*
X132586Y393535D01*
X131586Y395202D01*
X129586Y396035D01*
X127586Y396035D01*
X125586Y395202D01*
X124586Y393535D01*
G54D10*
X120919Y391035D02*
X115919Y396035D01*
X115919Y382702D01*
G54D13*
X527727Y481862D02*
X527727Y494562D01*
X537302Y494562D01*
G54D13*
X562569Y481862D02*
X562569Y494562D01*
X552994Y494562D01*
G54D10*
X542258Y518555D02*
X537258Y516055D01*
G54D10*
X538258Y526888D02*
X538258Y518555D01*
X539258Y516888D01*
X541258Y516055D01*
X543258Y516055D01*
X545258Y516888D01*
X546258Y518555D01*
X546258Y526888D01*
X545258Y528555D01*
X543258Y529388D01*
X541258Y529388D01*
X539258Y528555D01*
X538258Y526888D01*
G54D10*
X533591Y524388D02*
X528591Y529388D01*
X528591Y516055D01*
G54D10*
X548991Y447432D02*
X535658Y447432D01*
X535658Y442432D01*
X536491Y440432D01*
X538158Y439432D01*
X546491Y439432D01*
X548158Y440432D01*
X548991Y442432D01*
X548991Y447432D01*
G54D10*
X548991Y431765D02*
X535658Y431765D01*
G54D10*
X535658Y435765D02*
X535658Y427765D01*
G54D10*
X546491Y416098D02*
X548158Y417098D01*
X548991Y419098D01*
X548991Y421098D01*
X548158Y423098D01*
X546491Y424098D01*
X538158Y424098D01*
X536491Y423098D01*
X535658Y421098D01*
X535658Y419098D01*
X536491Y417098D01*
X538158Y416098D01*
G54D10*
X540658Y412431D02*
X535658Y407431D01*
X548991Y407431D01*
G54D10*
X540658Y403764D02*
X535658Y398764D01*
X548991Y398764D01*
G54D10*
X548991Y389097D02*
X535658Y389097D01*
X543991Y395097D01*
X545658Y395097D01*
X545658Y387097D01*
G54D11*
X290512Y136225D02*
X147638Y136225D01*
X147638Y585488D01*
X290512Y585488D01*
X290512Y136225D01*
G54D16*
X219449Y448315D02*
X222227Y441649D01*
X225005Y439426D01*
X230560Y439426D01*
G54D16*
X230560Y457204D02*
X208338Y457204D01*
X208338Y446093D01*
X209727Y441649D01*
X212505Y439426D01*
X215283Y439426D01*
X218060Y441649D01*
X219449Y446093D01*
X219449Y457204D01*
G54D16*
X226394Y433315D02*
X229171Y431093D01*
X230560Y426649D01*
X230560Y422204D01*
X229171Y417760D01*
X226394Y415537D01*
X223616Y415537D01*
X220838Y417760D01*
X219449Y422204D01*
X219449Y426649D01*
X218060Y431093D01*
X215283Y433315D01*
X212505Y433315D01*
X209727Y431093D01*
X208338Y426649D01*
X208338Y422204D01*
X209727Y417760D01*
X212505Y415537D01*
G54D16*
X220838Y409426D02*
X220838Y391648D01*
G54D16*
X230560Y372204D02*
X208338Y372204D01*
X222227Y385537D01*
X225005Y385537D01*
X225005Y367759D01*
G54D16*
X219449Y350537D02*
X219449Y354982D01*
X218060Y359426D01*
X215282Y361648D01*
X212505Y361648D01*
X209727Y359426D01*
X208338Y354982D01*
X208338Y350537D01*
X209727Y346093D01*
X212505Y343870D01*
X215282Y343870D01*
X218060Y346093D01*
X219449Y350537D01*
X220838Y346093D01*
X223616Y343870D01*
X226394Y343870D01*
X229171Y346093D01*
X230560Y350537D01*
X230560Y354982D01*
X229171Y359426D01*
X226394Y361648D01*
X223616Y361648D01*
X220838Y359426D01*
X219449Y354982D01*
G54D16*
X208338Y319981D02*
X208338Y337759D01*
X218060Y337759D01*
X218060Y335537D01*
X216671Y331093D01*
X216671Y326648D01*
X218060Y322204D01*
X220838Y319981D01*
X226394Y319981D01*
X229171Y322204D01*
X230560Y326648D01*
X230560Y331093D01*
X229171Y335537D01*
X226394Y337759D01*
G54D13*
X793613Y339247D02*
X793613Y372585D01*
G54D13*
X805916Y352344D02*
X797978Y352344D01*
X801947Y358694D01*
X805916Y352344D01*
G54D13*
X806313Y359091D02*
X797581Y359091D01*
G54D13*
X810678Y339247D02*
X810678Y372585D01*
G54D10*
X807774Y411938D02*
X794440Y411938D01*
X794440Y406938D01*
X795274Y404938D01*
X796940Y403938D01*
X805274Y403938D01*
X806940Y404938D01*
X807774Y406938D01*
X807774Y411938D01*
G54D10*
X796940Y400271D02*
X795274Y399271D01*
X794440Y397271D01*
X794440Y395271D01*
X795274Y393271D01*
X796940Y392271D01*
X798607Y392271D01*
X800274Y393271D01*
X801107Y395271D01*
X801940Y393271D01*
X803607Y392271D01*
X805274Y392271D01*
X806940Y393271D01*
X807774Y395271D01*
X807774Y397271D01*
X806940Y399271D01*
X805274Y400271D01*
G54D10*
X808347Y316895D02*
X795014Y316895D01*
X803347Y311895D01*
X795014Y306895D01*
X808347Y306895D01*
G54D10*
X795014Y303228D02*
X795014Y295228D01*
X796681Y296228D01*
X799181Y298228D01*
X802514Y300228D01*
X805014Y301228D01*
X808347Y301228D01*
G54D17*
X649461Y409512D02*
X696286Y409762D01*
G54D17*
X649461Y384112D02*
X696286Y384112D01*
G54D10*
X676100Y421454D02*
X673100Y419788D01*
X672100Y418121D01*
X672100Y414788D01*
G54D10*
X680100Y414788D02*
X680100Y428121D01*
X675100Y428121D01*
X673100Y427288D01*
X672100Y425621D01*
X672100Y423954D01*
X673100Y422288D01*
X675100Y421454D01*
X680100Y421454D01*
G54D10*
X660433Y414788D02*
X668433Y414788D01*
X668433Y415621D01*
X667433Y417288D01*
X661433Y422288D01*
X660433Y423954D01*
X660433Y425621D01*
X661433Y427288D01*
X663433Y428121D01*
X665433Y428121D01*
X667433Y427288D01*
X668433Y425621D01*
G54D12*
X716228Y275078D02*
X716228Y260633D01*
X718006Y258411D01*
X721561Y257300D01*
X725117Y257300D01*
X728672Y258411D01*
X730450Y260633D01*
G54D12*
X704228Y260633D02*
X695339Y257300D01*
G54D12*
X697117Y271744D02*
X697117Y260633D01*
X698895Y258411D01*
X702450Y257300D01*
X706006Y257300D01*
X709561Y258411D01*
X711339Y260633D01*
X711339Y271744D01*
X709561Y273967D01*
X706006Y275078D01*
X702450Y275078D01*
X698895Y273967D01*
X697117Y271744D01*
G54D12*
X676228Y271744D02*
X678006Y273967D01*
X681561Y275078D01*
X685117Y275078D01*
X688672Y273967D01*
X690450Y271744D01*
X690450Y266189D01*
X690450Y265078D01*
X685117Y267300D01*
X681561Y267300D01*
X678006Y266189D01*
X676228Y263967D01*
X676228Y260633D01*
X678006Y258411D01*
X681561Y257300D01*
X685117Y257300D01*
X688672Y258411D01*
X690450Y260633D01*
X690450Y266189D01*
G54D12*
X657117Y275078D02*
X671339Y275078D01*
X671339Y267300D01*
X669561Y267300D01*
X666006Y268411D01*
X662450Y268411D01*
X658895Y267300D01*
X657117Y265078D01*
X657117Y260633D01*
X658895Y258411D01*
X662450Y257300D01*
X666006Y257300D01*
X669561Y258411D01*
X671339Y260633D01*
G54D12*
X638006Y271744D02*
X638006Y260633D01*
X639784Y258411D01*
X643339Y257300D01*
X646895Y257300D01*
X650450Y258411D01*
X652228Y260633D01*
X652228Y271744D01*
X650450Y273967D01*
X646895Y275078D01*
X643339Y275078D01*
X639784Y273967D01*
X638006Y271744D01*
G54D12*
X618895Y271744D02*
X618895Y260633D01*
X620673Y258411D01*
X624228Y257300D01*
X627784Y257300D01*
X631339Y258411D01*
X633117Y260633D01*
X633117Y271744D01*
X631339Y273967D01*
X627784Y275078D01*
X624228Y275078D01*
X620673Y273967D01*
X618895Y271744D01*
G54D17*
X649461Y460312D02*
X696286Y460562D01*
G54D17*
X649461Y434912D02*
X696286Y434912D01*
G54D10*
X676100Y472254D02*
X673100Y470588D01*
X672100Y468921D01*
X672100Y465588D01*
G54D10*
X680100Y465588D02*
X680100Y478921D01*
X675100Y478921D01*
X673100Y478088D01*
X672100Y476421D01*
X672100Y474754D01*
X673100Y473088D01*
X675100Y472254D01*
X680100Y472254D01*
G54D10*
X668433Y473921D02*
X663433Y478921D01*
X663433Y465588D01*
G54D17*
X649461Y355537D02*
X696286Y355787D01*
G54D17*
X649461Y330137D02*
X696286Y330137D01*
G54D10*
X676100Y367479D02*
X673100Y365812D01*
X672100Y364146D01*
X672100Y360812D01*
G54D10*
X680100Y360812D02*
X680100Y374146D01*
X675100Y374146D01*
X673100Y373312D01*
X672100Y371646D01*
X672100Y369979D01*
X673100Y368312D01*
X675100Y367479D01*
X680100Y367479D01*
G54D10*
X668433Y371646D02*
X667433Y373312D01*
X665433Y374146D01*
X663433Y374146D01*
X661433Y373312D01*
X660433Y371646D01*
X660433Y369979D01*
X661433Y368312D01*
X663433Y367479D01*
X661433Y366646D01*
X660433Y364979D01*
X660433Y363312D01*
X661433Y361646D01*
X663433Y360812D01*
X665433Y360812D01*
X667433Y361646D01*
X668433Y363312D01*
G54D17*
X652636Y231712D02*
X699461Y231962D01*
G54D17*
X652636Y206312D02*
X699461Y206312D01*
G54D10*
X679275Y243654D02*
X676275Y241988D01*
X675275Y240321D01*
X675275Y236988D01*
G54D10*
X683275Y236988D02*
X683275Y250321D01*
X678275Y250321D01*
X676275Y249488D01*
X675275Y247821D01*
X675275Y246154D01*
X676275Y244488D01*
X678275Y243654D01*
X683275Y243654D01*
G54D10*
X665608Y236988D02*
X665608Y250321D01*
X671608Y241988D01*
X671608Y240321D01*
X663608Y240321D01*
G54D11*
X535963Y605231D02*
X535963Y649681D01*
X599463Y649681D01*
X599463Y605231D01*
X535963Y605231D01*
G54D10*
X513662Y645458D02*
X526996Y635458D01*
G54D10*
X526996Y645458D02*
X513662Y635458D01*
G54D10*
X526996Y631791D02*
X513662Y631791D01*
X513662Y626791D01*
X514496Y624791D01*
X516162Y623791D01*
X517829Y623791D01*
X519496Y624791D01*
X520329Y626791D01*
X520329Y631791D01*
G54D10*
X516162Y620124D02*
X514496Y619124D01*
X513662Y617124D01*
X513662Y615124D01*
X514496Y613124D01*
X516162Y612124D01*
X517829Y612124D01*
X519496Y613124D01*
X520329Y615124D01*
X521162Y613124D01*
X522829Y612124D01*
X524496Y612124D01*
X526162Y613124D01*
X526996Y615124D01*
X526996Y617124D01*
X526162Y619124D01*
X524496Y620124D01*
G54D11*
X678838Y605231D02*
X678838Y649681D01*
X742338Y649681D01*
X742338Y605231D01*
X678838Y605231D01*
G54D10*
X656537Y645458D02*
X669871Y635458D01*
G54D10*
X669871Y645458D02*
X656537Y635458D01*
G54D10*
X669871Y631791D02*
X656537Y631791D01*
X656537Y626791D01*
X657371Y624791D01*
X659037Y623791D01*
X660704Y623791D01*
X662371Y624791D01*
X663204Y626791D01*
X663204Y631791D01*
G54D10*
X669871Y614124D02*
X656537Y614124D01*
X664871Y620124D01*
X666537Y620124D01*
X666537Y612124D01*
G54D17*
X244554Y259815D02*
X197729Y259565D01*
G54D17*
X244554Y285215D02*
X197729Y285215D01*
G54D10*
X247197Y291704D02*
X247197Y305037D01*
X242197Y305037D01*
X240197Y304204D01*
X239197Y302537D01*
X239197Y294204D01*
X240197Y292537D01*
X242197Y291704D01*
X247197Y291704D01*
G54D10*
X227530Y302537D02*
X227530Y294204D01*
X228530Y292537D01*
X230530Y291704D01*
X232530Y291704D01*
X234530Y292537D01*
X235530Y294204D01*
X235530Y302537D01*
X234530Y304204D01*
X232530Y305037D01*
X230530Y305037D01*
X228530Y304204D01*
X227530Y302537D01*
G54D10*
X223863Y291704D02*
X215863Y305037D01*
G54D10*
X208196Y298370D02*
X205196Y296704D01*
X204196Y295037D01*
X204196Y291704D01*
G54D10*
X212196Y291704D02*
X212196Y305037D01*
X207196Y305037D01*
X205196Y304204D01*
X204196Y302537D01*
X204196Y300870D01*
X205196Y299204D01*
X207196Y298370D01*
X212196Y298370D01*
G54D10*
X192529Y302537D02*
X192529Y294204D01*
X193529Y292537D01*
X195529Y291704D01*
X197529Y291704D01*
X199529Y292537D01*
X200529Y294204D01*
X200529Y302537D01*
X199529Y304204D01*
X197529Y305037D01*
X195529Y305037D01*
X193529Y304204D01*
X192529Y302537D01*
G54D17*
X112073Y397638D02*
X112073Y473038D01*
G36*
X84138Y446881D02*
X107157Y446881D01*
X95647Y425847D01*
X84138Y446881D01*
G37*
G54D13*
X84138Y446881D02*
X107157Y446881D01*
X95647Y425847D01*
X84138Y446881D01*
G54D13*
X84138Y425450D02*
X107157Y425450D01*
G54D17*
X78736Y397638D02*
X78736Y473038D01*
G54D10*
X134780Y472195D02*
X134780Y485528D01*
X129780Y485528D01*
X127780Y484695D01*
X126780Y483028D01*
X126780Y474695D01*
X127780Y473028D01*
X129780Y472195D01*
X134780Y472195D01*
G54D10*
X123112Y480528D02*
X118112Y485528D01*
X118112Y472195D01*
G54D11*
X428013Y605231D02*
X428013Y649681D01*
X491513Y649681D01*
X491513Y605231D01*
X428013Y605231D01*
G54D10*
X405712Y645458D02*
X419046Y635458D01*
G54D10*
X419046Y645458D02*
X405712Y635458D01*
G54D10*
X419046Y631791D02*
X405712Y631791D01*
X405712Y626791D01*
X406546Y624791D01*
X408212Y623791D01*
X409879Y623791D01*
X411546Y624791D01*
X412379Y626791D01*
X412379Y631791D01*
G54D10*
X405712Y612124D02*
X405712Y620124D01*
X411546Y620124D01*
X411546Y619124D01*
X410712Y617124D01*
X410712Y615124D01*
X411546Y613124D01*
X413212Y612124D01*
X416546Y612124D01*
X418212Y613124D01*
X419046Y615124D01*
X419046Y617124D01*
X418212Y619124D01*
X416546Y620124D01*
G54D17*
X387429Y602715D02*
X340604Y602465D01*
G54D17*
X387429Y628115D02*
X340604Y628115D01*
G54D10*
X367022Y641270D02*
X364022Y639604D01*
X363022Y637937D01*
X363022Y634604D01*
G54D10*
X371022Y634604D02*
X371022Y647937D01*
X366022Y647937D01*
X364022Y647104D01*
X363022Y645437D01*
X363022Y643770D01*
X364022Y642104D01*
X366022Y641270D01*
X371022Y641270D01*
G54D10*
X351355Y647937D02*
X359355Y647937D01*
X359355Y642104D01*
X358355Y642104D01*
X356355Y642937D01*
X354355Y642937D01*
X352355Y642104D01*
X351355Y640437D01*
X351355Y637104D01*
X352355Y635437D01*
X354355Y634604D01*
X356355Y634604D01*
X358355Y635437D01*
X359355Y637104D01*
M02*
