%FSLAX34Y34*%
%MOMM*%
%LNCOPPER_TOP*%
G71*
G01*
%ADD10C, 7.800*%
%ADD11C, 3.000*%
%ADD12C, 3.400*%
%ADD13C, 2.600*%
%ADD14C, 2.700*%
%ADD15C, 2.500*%
%ADD16C, 2.000*%
%ADD17C, 1.500*%
%ADD18C, 1.300*%
%ADD19C, 1.022*%
%ADD20C, 0.967*%
%ADD21C, 3.200*%
%ADD22C, 2.333*%
%ADD23C, 0.567*%
%ADD24C, 0.512*%
%ADD25C, 0.400*%
%ADD26C, 0.633*%
%ADD27C, 0.600*%
%ADD28C, 0.753*%
%ADD29C, 7.000*%
%ADD30C, 2.000*%
%ADD31C, 1.800*%
%ADD32C, 1.900*%
%ADD33C, 1.700*%
%ADD34C, 1.200*%
%ADD35C, 0.700*%
%ADD36C, 0.500*%
%ADD37C, 0.222*%
%ADD38C, 0.167*%
%LPD*%
G36*
X0Y700000D02*
X900000Y700000D01*
X900000Y0D01*
X0Y0D01*
X0Y700000D01*
G37*
%LPC*%
X84137Y625475D02*
G54D10*
D03*
X84137Y104813D02*
G54D10*
D03*
X804862Y104813D02*
G54D10*
D03*
X804862Y625475D02*
G54D10*
D03*
X182562Y569612D02*
G54D11*
D03*
X207962Y569612D02*
G54D11*
D03*
X233362Y569612D02*
G54D11*
D03*
X258762Y569612D02*
G54D11*
D03*
X182562Y153687D02*
G54D11*
D03*
X207962Y153687D02*
G54D11*
D03*
X233362Y153688D02*
G54D11*
D03*
X258762Y153687D02*
G54D11*
D03*
X481012Y187362D02*
G54D12*
D03*
X481012Y212762D02*
G54D12*
D03*
X481012Y238162D02*
G54D12*
D03*
X481012Y263562D02*
G54D12*
D03*
X481012Y288962D02*
G54D12*
D03*
X481012Y314362D02*
G54D12*
D03*
X481012Y339762D02*
G54D12*
D03*
X481012Y365162D02*
G54D12*
D03*
X481012Y390562D02*
G54D12*
D03*
X481012Y415962D02*
G54D12*
D03*
X481012Y441362D02*
G54D12*
D03*
X481012Y466762D02*
G54D12*
D03*
X481012Y492162D02*
G54D12*
D03*
X481012Y517562D02*
G54D12*
D03*
X481012Y542962D02*
G54D12*
D03*
X328612Y187362D02*
G54D12*
D03*
X328612Y212762D02*
G54D12*
D03*
X328612Y238162D02*
G54D12*
D03*
X328612Y263562D02*
G54D12*
D03*
X328612Y288962D02*
G54D12*
D03*
X328612Y314362D02*
G54D12*
D03*
X328612Y339762D02*
G54D12*
D03*
X328612Y365162D02*
G54D12*
D03*
X328612Y390562D02*
G54D12*
D03*
X328612Y415962D02*
G54D12*
D03*
X328612Y441362D02*
G54D12*
D03*
X328612Y466762D02*
G54D12*
D03*
X328612Y492162D02*
G54D12*
D03*
X328612Y517562D02*
G54D12*
D03*
X328612Y542962D02*
G54D12*
D03*
X595312Y487400D02*
G54D12*
D03*
X595312Y462000D02*
G54D12*
D03*
X595312Y436600D02*
G54D12*
D03*
X595312Y411200D02*
G54D12*
D03*
X595312Y385800D02*
G54D12*
D03*
X595312Y360400D02*
G54D12*
D03*
X595312Y335000D02*
G54D12*
D03*
X94761Y322933D02*
G54D13*
D03*
X94761Y362933D02*
G54D13*
D03*
X94765Y539283D02*
G54D14*
D03*
G36*
X108265Y527383D02*
X108265Y500383D01*
X81265Y500383D01*
X81265Y527383D01*
X108265Y527383D01*
G37*
X94413Y204322D02*
G54D14*
D03*
G36*
X107913Y192422D02*
X107913Y165422D01*
X80913Y165422D01*
X80913Y192422D01*
X107913Y192422D01*
G37*
X94413Y229722D02*
G54D14*
D03*
X94413Y255122D02*
G54D14*
D03*
X747713Y487400D02*
G54D12*
D03*
X747713Y462000D02*
G54D12*
D03*
X747713Y436600D02*
G54D12*
D03*
X747713Y411200D02*
G54D12*
D03*
X747713Y385800D02*
G54D12*
D03*
X747713Y360400D02*
G54D12*
D03*
X747713Y335000D02*
G54D12*
D03*
G36*
X764713Y326600D02*
X764713Y292600D01*
X730713Y292600D01*
X730713Y326600D01*
X764713Y326600D01*
G37*
X595312Y309600D02*
G54D12*
D03*
X598414Y174577D02*
G54D15*
D03*
X623814Y174577D02*
G54D15*
D03*
X719064Y174577D02*
G54D15*
D03*
X744464Y174577D02*
G54D15*
D03*
X598329Y555651D02*
G54D15*
D03*
X598328Y530251D02*
G54D15*
D03*
X719064Y555577D02*
G54D15*
D03*
X744464Y555577D02*
G54D15*
D03*
X579884Y628209D02*
G54D14*
D03*
G36*
X567984Y614709D02*
X540984Y614709D01*
X540984Y641709D01*
X567984Y641709D01*
X567984Y614709D01*
G37*
X534987Y358838D02*
G54D16*
D03*
X776287Y358838D02*
G54D16*
D03*
X563563Y449326D02*
G54D16*
D03*
X481013Y160401D02*
G54D16*
D03*
X722759Y628209D02*
G54D14*
D03*
G36*
X710859Y614709D02*
X683859Y614709D01*
X683859Y641709D01*
X710859Y641709D01*
X710859Y614709D01*
G37*
G54D17*
X747713Y487400D02*
X715925Y487400D01*
X692150Y511175D01*
X692150Y565150D01*
X720725Y593725D01*
X722759Y628209D01*
G54D17*
X747713Y462000D02*
X715925Y462000D01*
X669925Y508000D01*
X669925Y574675D01*
X695325Y596900D01*
X697359Y628209D01*
G54D17*
X598414Y174577D02*
X598414Y261864D01*
X622300Y285750D01*
X622300Y565150D01*
X606425Y581025D01*
X574675Y581025D01*
X555625Y600075D01*
X555625Y627068D01*
X554484Y628209D01*
G54D17*
X623814Y174577D02*
X623814Y265039D01*
X641350Y282575D01*
X641350Y568325D01*
X612775Y596900D01*
X587375Y596900D01*
X581025Y603250D01*
X581025Y627068D01*
X579884Y628209D01*
X801688Y255651D02*
G54D16*
D03*
X258763Y441389D02*
G54D16*
D03*
X508000Y466788D02*
G54D16*
D03*
G54D18*
X508000Y466788D02*
X508000Y146050D01*
X517525Y136525D01*
X739775Y136525D01*
X765175Y161925D01*
X765175Y219138D01*
X801688Y255651D01*
G54D18*
X508000Y146050D02*
X498475Y136525D01*
X275924Y136525D01*
X258762Y153687D01*
G54D18*
X328612Y365162D02*
X363575Y365162D01*
X387350Y388938D01*
X387350Y561975D01*
X406400Y581025D01*
X498475Y581025D01*
X506412Y573088D01*
X506412Y500062D01*
X563562Y500062D01*
X563563Y449326D01*
G54D19*
X275208Y605789D02*
X279208Y603567D01*
X280542Y601344D01*
X280542Y596900D01*
G54D19*
X269875Y596900D02*
X269875Y614678D01*
X276542Y614678D01*
X279208Y613567D01*
X280542Y611344D01*
X280542Y609122D01*
X279208Y606900D01*
X276542Y605789D01*
X269875Y605789D01*
G54D19*
X285431Y600233D02*
X286764Y598011D01*
X289431Y596900D01*
X292098Y596900D01*
X294764Y598011D01*
X296098Y600233D01*
X296098Y602456D01*
X294764Y604678D01*
X292098Y605789D01*
X289431Y605789D01*
X286764Y606900D01*
X285431Y609122D01*
X285431Y611344D01*
X286764Y613567D01*
X289431Y614678D01*
X292098Y614678D01*
X294764Y613567D01*
X296098Y611344D01*
G54D19*
X300987Y604678D02*
X311654Y604678D01*
G54D19*
X324543Y596900D02*
X324543Y614678D01*
X316543Y603567D01*
X316543Y601344D01*
X327210Y601344D01*
G54D19*
X338766Y605789D02*
X336099Y605789D01*
X333432Y606900D01*
X332099Y609122D01*
X332099Y611344D01*
X333432Y613567D01*
X336099Y614678D01*
X338766Y614678D01*
X341432Y613567D01*
X342766Y611344D01*
X342766Y609122D01*
X341432Y606900D01*
X338766Y605789D01*
X341432Y604678D01*
X342766Y602456D01*
X342766Y600233D01*
X341432Y598011D01*
X338766Y596900D01*
X336099Y596900D01*
X333432Y598011D01*
X332099Y600233D01*
X332099Y602456D01*
X333432Y604678D01*
X336099Y605789D01*
G54D19*
X358322Y614678D02*
X347655Y614678D01*
X347655Y606900D01*
X348988Y606900D01*
X351655Y608011D01*
X354322Y608011D01*
X356988Y606900D01*
X358322Y604678D01*
X358322Y600233D01*
X356988Y598011D01*
X354322Y596900D01*
X351655Y596900D01*
X348988Y598011D01*
X347655Y600233D01*
G54D20*
X153284Y103914D02*
X151284Y104414D01*
X149284Y103914D01*
X148284Y102248D01*
X148284Y98914D01*
X149284Y97248D01*
X151284Y96914D01*
X153284Y97248D01*
G54D20*
X156951Y96914D02*
X156951Y104414D01*
G54D20*
X156951Y102748D02*
X158951Y104414D01*
X160951Y104414D01*
G54D20*
X170618Y97748D02*
X169018Y96914D01*
X167018Y96914D01*
X165018Y97748D01*
X164618Y99414D01*
X164618Y102248D01*
X165618Y103914D01*
X167618Y104414D01*
X169618Y103914D01*
X170618Y102748D01*
X170618Y101081D01*
X164618Y101081D01*
G54D20*
X174285Y103581D02*
X176285Y104414D01*
X178685Y104414D01*
X180285Y102748D01*
X180285Y96914D01*
G54D20*
X180285Y99414D02*
X179285Y101081D01*
X177285Y101414D01*
X175285Y101081D01*
X174285Y99414D01*
X174685Y97748D01*
X176285Y96914D01*
X177285Y96914D01*
X177685Y96914D01*
X179285Y97748D01*
X180285Y99414D01*
G54D20*
X185952Y110248D02*
X185952Y97748D01*
X186952Y96914D01*
X187952Y97248D01*
G54D20*
X183952Y104414D02*
X187952Y104414D01*
G54D20*
X197619Y97748D02*
X196019Y96914D01*
X194019Y96914D01*
X192019Y97748D01*
X191619Y99414D01*
X191619Y102248D01*
X192619Y103914D01*
X194619Y104414D01*
X196619Y103914D01*
X197619Y102748D01*
X197619Y101081D01*
X191619Y101081D01*
G54D20*
X207286Y96914D02*
X207286Y110248D01*
G54D20*
X207286Y102248D02*
X206286Y103914D01*
X204286Y104414D01*
X202286Y103914D01*
X201286Y102248D01*
X201286Y98914D01*
X202286Y97248D01*
X204286Y96914D01*
X206286Y97248D01*
X207286Y98914D01*
G54D20*
X214820Y96914D02*
X214820Y110248D01*
G54D20*
X214820Y102248D02*
X215820Y103914D01*
X217820Y104414D01*
X219820Y103914D01*
X220820Y102248D01*
X220820Y98914D01*
X219820Y97248D01*
X217820Y96914D01*
X215820Y97248D01*
X214820Y98914D01*
G54D20*
X224487Y104414D02*
X228487Y96914D01*
X232487Y104414D01*
G54D20*
X228487Y96914D02*
X227487Y94414D01*
X226487Y93581D01*
X225487Y93581D01*
G54D20*
X240021Y96914D02*
X240021Y110248D01*
G54D20*
X240021Y101081D02*
X248021Y110248D01*
G54D20*
X243021Y103581D02*
X248021Y96914D01*
G54D20*
X251688Y103581D02*
X253688Y104414D01*
X256088Y104414D01*
X257688Y102748D01*
X257688Y96914D01*
G54D20*
X257688Y99414D02*
X256688Y101081D01*
X254688Y101414D01*
X252688Y101081D01*
X251688Y99414D01*
X252088Y97748D01*
X253688Y96914D01*
X254688Y96914D01*
X255088Y96914D01*
X256688Y97748D01*
X257688Y99414D01*
G54D20*
X261355Y96914D02*
X261355Y104414D01*
G54D20*
X261355Y102748D02*
X263355Y104414D01*
X265355Y104414D01*
G54D20*
X269022Y96914D02*
X269022Y110248D01*
G54D20*
X272689Y96914D02*
X272689Y110248D01*
G54D20*
X280689Y96914D02*
X280689Y110248D01*
G54D20*
X272689Y103581D02*
X280689Y103581D01*
G54D20*
X284356Y103581D02*
X286356Y104414D01*
X288756Y104414D01*
X290356Y102748D01*
X290356Y96914D01*
G54D20*
X290356Y99414D02*
X289356Y101081D01*
X287356Y101414D01*
X285356Y101081D01*
X284356Y99414D01*
X284756Y97748D01*
X286356Y96914D01*
X287356Y96914D01*
X287756Y96914D01*
X289356Y97748D01*
X290356Y99414D01*
G54D20*
X294023Y96914D02*
X294023Y104414D01*
G54D20*
X294023Y102748D02*
X295023Y103914D01*
X297023Y104414D01*
X299023Y103914D01*
X300023Y102748D01*
X300023Y96914D01*
G54D20*
X303690Y104414D02*
X309690Y104414D01*
X303690Y96914D01*
X309690Y96914D01*
X94413Y255121D02*
G54D14*
D03*
X94761Y322933D02*
G54D13*
D03*
X94765Y539283D02*
G54D14*
D03*
X404813Y119126D02*
G54D16*
D03*
X182562Y153687D02*
G54D21*
D03*
X471934Y628209D02*
G54D14*
D03*
G36*
X460034Y614709D02*
X433034Y614709D01*
X433034Y641709D01*
X460034Y641709D01*
X460034Y614709D01*
G37*
X471934Y628209D02*
G54D13*
D03*
X306388Y630301D02*
G54D16*
D03*
G54D18*
X328612Y415962D02*
X347700Y415962D01*
X361950Y430212D01*
X361950Y574675D01*
X306452Y630238D01*
X306388Y630301D01*
G54D19*
X160338Y628650D02*
X160338Y646428D01*
X167004Y646428D01*
X169671Y645317D01*
X171004Y643094D01*
X171004Y640872D01*
X169671Y638650D01*
X167004Y637539D01*
X160338Y637539D01*
G54D19*
X175894Y646428D02*
X175894Y628650D01*
X185227Y628650D01*
G54D19*
X190116Y628650D02*
X196782Y646428D01*
X203449Y628650D01*
G54D19*
X192782Y635317D02*
X200782Y635317D01*
G54D19*
X208338Y646428D02*
X215004Y637539D01*
X215004Y628650D01*
G54D19*
X215004Y637539D02*
X221671Y646428D01*
G54D19*
X226560Y628650D02*
X226560Y646428D01*
X233226Y646428D01*
X235893Y645317D01*
X237226Y643094D01*
X237226Y640872D01*
X235893Y638650D01*
X233226Y637539D01*
X235893Y636428D01*
X237226Y634206D01*
X237226Y631983D01*
X235893Y629761D01*
X233226Y628650D01*
X226560Y628650D01*
G54D19*
X226560Y637539D02*
X233226Y637539D01*
G54D19*
X242116Y628650D02*
X248782Y646428D01*
X255449Y628650D01*
G54D19*
X244782Y635317D02*
X252782Y635317D01*
G54D19*
X271004Y631983D02*
X269671Y629761D01*
X267004Y628650D01*
X264338Y628650D01*
X261671Y629761D01*
X260338Y631983D01*
X260338Y643094D01*
X261671Y645317D01*
X264338Y646428D01*
X267004Y646428D01*
X269671Y645317D01*
X271004Y643094D01*
G54D19*
X275894Y628650D02*
X275894Y646428D01*
G54D19*
X275894Y634206D02*
X286560Y646428D01*
G54D19*
X279894Y637539D02*
X286560Y628650D01*
G54D19*
X161925Y596900D02*
X161925Y614678D01*
X168592Y603567D01*
X175258Y614678D01*
X175258Y596900D01*
G54D19*
X190814Y611344D02*
X190814Y600233D01*
X189480Y598011D01*
X186814Y596900D01*
X184147Y596900D01*
X181480Y598011D01*
X180147Y600233D01*
X180147Y611344D01*
X181480Y613567D01*
X184147Y614678D01*
X186814Y614678D01*
X189480Y613567D01*
X190814Y611344D01*
G54D19*
X195703Y596900D02*
X195703Y614678D01*
X202370Y614678D01*
X205036Y613567D01*
X206370Y611344D01*
X206370Y600233D01*
X205036Y598011D01*
X202370Y596900D01*
X195703Y596900D01*
G54D19*
X211259Y614678D02*
X211259Y600233D01*
X212592Y598011D01*
X215259Y596900D01*
X217926Y596900D01*
X220592Y598011D01*
X221926Y600233D01*
X221926Y614678D01*
G54D19*
X226815Y614678D02*
X226815Y596900D01*
X236148Y596900D01*
G54D19*
X250370Y596900D02*
X241037Y596900D01*
X241037Y614678D01*
X250370Y614678D01*
G54D19*
X241037Y605789D02*
X250370Y605789D01*
%LPD*%
G54D22*
G36*
X75887Y633725D02*
X103818Y661655D01*
X120317Y645156D01*
X92387Y617225D01*
X75887Y633725D01*
G37*
G36*
X92387Y633725D02*
X120317Y605794D01*
X103818Y589295D01*
X75887Y617225D01*
X92387Y633725D01*
G37*
G36*
X92387Y617225D02*
X64456Y589295D01*
X47957Y605794D01*
X75887Y633725D01*
X92387Y617225D01*
G37*
G54D22*
G36*
X75887Y113063D02*
X103818Y140993D01*
X120317Y124494D01*
X92387Y96563D01*
X75887Y113063D01*
G37*
G36*
X92387Y113063D02*
X120317Y85132D01*
X103818Y68633D01*
X75887Y96563D01*
X92387Y113063D01*
G37*
G36*
X75887Y96563D02*
X47957Y124494D01*
X64456Y140993D01*
X92387Y113063D01*
X75887Y96563D01*
G37*
G54D22*
G36*
X796612Y113063D02*
X824543Y140993D01*
X841042Y124494D01*
X813112Y96563D01*
X796612Y113063D01*
G37*
G36*
X813112Y96563D02*
X785181Y68633D01*
X768682Y85132D01*
X796612Y113063D01*
X813112Y96563D01*
G37*
G36*
X796612Y96563D02*
X768682Y124494D01*
X785181Y140993D01*
X813112Y113063D01*
X796612Y96563D01*
G37*
G54D22*
G36*
X813112Y633725D02*
X841042Y605794D01*
X824543Y589295D01*
X796612Y617225D01*
X813112Y633725D01*
G37*
G36*
X813112Y617225D02*
X785181Y589295D01*
X768682Y605794D01*
X796612Y633725D01*
X813112Y617225D01*
G37*
G36*
X796612Y617225D02*
X768682Y645156D01*
X785181Y661655D01*
X813112Y633725D01*
X796612Y617225D01*
G37*
G54D23*
G36*
X744464Y177410D02*
X757464Y177410D01*
X757464Y171744D01*
X744464Y171744D01*
X744464Y177410D01*
G37*
G36*
X747297Y174577D02*
X747297Y161577D01*
X741631Y161577D01*
X741631Y174577D01*
X747297Y174577D01*
G37*
G36*
X741631Y174577D02*
X741631Y187577D01*
X747297Y187577D01*
X747297Y174577D01*
X741631Y174577D01*
G37*
G54D23*
G36*
X600332Y553648D02*
X591140Y544455D01*
X587133Y548462D01*
X596326Y557654D01*
X600332Y553648D01*
G37*
G36*
X596326Y553648D02*
X587133Y562840D01*
X591140Y566847D01*
X600332Y557654D01*
X596326Y553648D01*
G37*
G36*
X596326Y557654D02*
X605518Y566847D01*
X609525Y562840D01*
X600332Y553648D01*
X596326Y557654D01*
G37*
G36*
X600332Y557654D02*
X609525Y548462D01*
X605518Y544455D01*
X596326Y553648D01*
X600332Y557654D01*
G37*
G54D23*
G36*
X721067Y553574D02*
X711875Y544381D01*
X707868Y548388D01*
X717061Y557580D01*
X721067Y553574D01*
G37*
G36*
X717061Y553574D02*
X707868Y562766D01*
X711875Y566773D01*
X721067Y557580D01*
X717061Y553574D01*
G37*
G36*
X717061Y557580D02*
X726253Y566773D01*
X730260Y562766D01*
X721067Y553574D01*
X717061Y557580D01*
G37*
G54D24*
G36*
X537547Y358838D02*
X537547Y348338D01*
X532427Y348338D01*
X532427Y358838D01*
X537547Y358838D01*
G37*
G36*
X534987Y356278D02*
X524487Y356278D01*
X524487Y361398D01*
X534987Y361398D01*
X534987Y356278D01*
G37*
G54D25*
G36*
X774873Y360252D02*
X782297Y367677D01*
X785126Y364848D01*
X777701Y357424D01*
X774873Y360252D01*
G37*
G36*
X777701Y360252D02*
X785126Y352828D01*
X782297Y349999D01*
X774873Y357424D01*
X777701Y360252D01*
G37*
G36*
X777701Y357424D02*
X770277Y349999D01*
X767448Y352828D01*
X774873Y360252D01*
X777701Y357424D01*
G37*
G36*
X774873Y357424D02*
X767448Y364848D01*
X770277Y367677D01*
X777701Y360252D01*
X774873Y357424D01*
G37*
G54D25*
G36*
X260177Y442803D02*
X267602Y435379D01*
X264773Y432550D01*
X257349Y439975D01*
X260177Y442803D01*
G37*
G36*
X260177Y439975D02*
X252753Y432550D01*
X249924Y435379D01*
X257349Y442803D01*
X260177Y439975D01*
G37*
G36*
X257349Y439975D02*
X249924Y447399D01*
X252753Y450228D01*
X260177Y442803D01*
X257349Y439975D01*
G37*
G54D26*
G36*
X91246Y255121D02*
X91246Y269121D01*
X97580Y269121D01*
X97580Y255121D01*
X91246Y255121D01*
G37*
G36*
X94413Y258288D02*
X108413Y258288D01*
X108413Y251954D01*
X94413Y251954D01*
X94413Y258288D01*
G37*
G36*
X94413Y251954D02*
X80413Y251954D01*
X80413Y258288D01*
X94413Y258288D01*
X94413Y251954D01*
G37*
G54D27*
G36*
X94761Y325933D02*
X108261Y325933D01*
X108261Y319933D01*
X94761Y319933D01*
X94761Y325933D01*
G37*
G36*
X97761Y322933D02*
X97761Y309433D01*
X91761Y309433D01*
X91761Y322933D01*
X97761Y322933D01*
G37*
G36*
X94761Y319933D02*
X81261Y319933D01*
X81261Y325933D01*
X94761Y325933D01*
X94761Y319933D01*
G37*
G54D26*
G36*
X91598Y539283D02*
X91598Y553283D01*
X97931Y553283D01*
X97931Y539283D01*
X91598Y539283D01*
G37*
G36*
X94765Y542450D02*
X108765Y542450D01*
X108765Y536116D01*
X94765Y536116D01*
X94765Y542450D01*
G37*
G36*
X94765Y536116D02*
X80765Y536116D01*
X80765Y542450D01*
X94765Y542450D01*
X94765Y536116D01*
G37*
G54D25*
G36*
X403399Y120540D02*
X410823Y127965D01*
X413652Y125136D01*
X406227Y117712D01*
X403399Y120540D01*
G37*
G36*
X406227Y120540D02*
X413652Y113116D01*
X410823Y110287D01*
X403399Y117712D01*
X406227Y120540D01*
G37*
G36*
X406227Y117712D02*
X398803Y110287D01*
X395974Y113116D01*
X403399Y120540D01*
X406227Y117712D01*
G37*
G36*
X403399Y117712D02*
X395974Y125136D01*
X398803Y127965D01*
X406227Y120540D01*
X403399Y117712D01*
G37*
G54D28*
G36*
X178795Y153687D02*
X178795Y170187D01*
X186329Y170187D01*
X186329Y153687D01*
X178795Y153687D01*
G37*
G36*
X186329Y153687D02*
X186329Y137187D01*
X178795Y137187D01*
X178795Y153687D01*
X186329Y153687D01*
G37*
G36*
X182562Y149920D02*
X166062Y149920D01*
X166062Y157454D01*
X182562Y157454D01*
X182562Y149920D01*
G37*
G54D27*
G36*
X468934Y628209D02*
X468934Y641709D01*
X474934Y641709D01*
X474934Y628209D01*
X468934Y628209D01*
G37*
G36*
X471934Y631209D02*
X485434Y631209D01*
X485434Y625209D01*
X471934Y625209D01*
X471934Y631209D01*
G37*
G36*
X474934Y628209D02*
X474934Y614709D01*
X468934Y614709D01*
X468934Y628209D01*
X474934Y628209D01*
G37*
X84137Y625475D02*
G54D29*
D03*
X84137Y104813D02*
G54D29*
D03*
X804862Y104813D02*
G54D29*
D03*
X804862Y625475D02*
G54D29*
D03*
X182562Y569612D02*
G54D30*
D03*
X207962Y569612D02*
G54D30*
D03*
X233362Y569612D02*
G54D30*
D03*
X258762Y569612D02*
G54D30*
D03*
X182562Y153687D02*
G54D30*
D03*
X207962Y153687D02*
G54D30*
D03*
X233362Y153688D02*
G54D30*
D03*
X258762Y153687D02*
G54D30*
D03*
X481012Y187362D02*
G54D30*
D03*
X481012Y212762D02*
G54D30*
D03*
X481012Y238162D02*
G54D30*
D03*
X481012Y263562D02*
G54D30*
D03*
X481012Y288962D02*
G54D30*
D03*
X481012Y314362D02*
G54D30*
D03*
X481012Y339762D02*
G54D30*
D03*
X481012Y365162D02*
G54D30*
D03*
X481012Y390562D02*
G54D30*
D03*
X481012Y415962D02*
G54D30*
D03*
X481012Y441362D02*
G54D30*
D03*
X481012Y466762D02*
G54D30*
D03*
X481012Y492162D02*
G54D30*
D03*
X481012Y517562D02*
G54D30*
D03*
X481012Y542962D02*
G54D30*
D03*
X328612Y187362D02*
G54D30*
D03*
X328612Y212762D02*
G54D30*
D03*
X328612Y238162D02*
G54D30*
D03*
X328612Y263562D02*
G54D30*
D03*
X328612Y288962D02*
G54D30*
D03*
X328612Y314362D02*
G54D30*
D03*
X328612Y339762D02*
G54D30*
D03*
X328612Y365162D02*
G54D30*
D03*
X328612Y390562D02*
G54D30*
D03*
X328612Y415962D02*
G54D30*
D03*
X328612Y441362D02*
G54D30*
D03*
X328612Y466762D02*
G54D30*
D03*
X328612Y492162D02*
G54D30*
D03*
X328612Y517562D02*
G54D30*
D03*
X328612Y542962D02*
G54D30*
D03*
X595312Y487400D02*
G54D30*
D03*
X595312Y462000D02*
G54D30*
D03*
X595312Y436600D02*
G54D30*
D03*
X595312Y411200D02*
G54D30*
D03*
X595312Y385800D02*
G54D30*
D03*
X595312Y360400D02*
G54D30*
D03*
X595312Y335000D02*
G54D30*
D03*
X94761Y322933D02*
G54D31*
D03*
X94761Y362933D02*
G54D31*
D03*
X94765Y539283D02*
G54D32*
D03*
G36*
X104265Y523383D02*
X104265Y504383D01*
X85265Y504383D01*
X85265Y523383D01*
X104265Y523383D01*
G37*
X94413Y204322D02*
G54D32*
D03*
G36*
X103913Y188422D02*
X103913Y169422D01*
X84913Y169422D01*
X84913Y188422D01*
X103913Y188422D01*
G37*
X94413Y229722D02*
G54D32*
D03*
X94413Y255122D02*
G54D32*
D03*
X747713Y487400D02*
G54D30*
D03*
X747713Y462000D02*
G54D30*
D03*
X747713Y436600D02*
G54D30*
D03*
X747713Y411200D02*
G54D30*
D03*
X747713Y385800D02*
G54D30*
D03*
X747713Y360400D02*
G54D30*
D03*
X747713Y335000D02*
G54D30*
D03*
G36*
X757713Y319600D02*
X757713Y299600D01*
X737713Y299600D01*
X737713Y319600D01*
X757713Y319600D01*
G37*
X595312Y309600D02*
G54D30*
D03*
X598414Y174577D02*
G54D33*
D03*
X623814Y174577D02*
G54D33*
D03*
X719064Y174577D02*
G54D33*
D03*
X744464Y174577D02*
G54D33*
D03*
X598329Y555651D02*
G54D33*
D03*
X598328Y530251D02*
G54D33*
D03*
X719064Y555577D02*
G54D33*
D03*
X744464Y555577D02*
G54D33*
D03*
X579884Y628209D02*
G54D32*
D03*
G36*
X563984Y618709D02*
X544984Y618709D01*
X544984Y637709D01*
X563984Y637709D01*
X563984Y618709D01*
G37*
X534987Y358838D02*
G54D34*
D03*
X776287Y358838D02*
G54D34*
D03*
X563563Y449326D02*
G54D34*
D03*
X481013Y160401D02*
G54D34*
D03*
X722759Y628209D02*
G54D32*
D03*
G36*
X706859Y618709D02*
X687859Y618709D01*
X687859Y637709D01*
X706859Y637709D01*
X706859Y618709D01*
G37*
G54D35*
X747713Y487400D02*
X715925Y487400D01*
X692150Y511175D01*
X692150Y565150D01*
X720725Y593725D01*
X722759Y628209D01*
G54D35*
X747713Y462000D02*
X715925Y462000D01*
X669925Y508000D01*
X669925Y574675D01*
X695325Y596900D01*
X697359Y628209D01*
G54D35*
X598414Y174577D02*
X598414Y261864D01*
X622300Y285750D01*
X622300Y565150D01*
X606425Y581025D01*
X574675Y581025D01*
X555625Y600075D01*
X555625Y627068D01*
X554484Y628209D01*
G54D35*
X623814Y174577D02*
X623814Y265039D01*
X641350Y282575D01*
X641350Y568325D01*
X612775Y596900D01*
X587375Y596900D01*
X581025Y603250D01*
X581025Y627068D01*
X579884Y628209D01*
X801688Y255651D02*
G54D34*
D03*
X258763Y441389D02*
G54D34*
D03*
X508000Y466788D02*
G54D34*
D03*
G54D36*
X508000Y466788D02*
X508000Y146050D01*
X517525Y136525D01*
X739775Y136525D01*
X765175Y161925D01*
X765175Y219138D01*
X801688Y255651D01*
G54D36*
X508000Y146050D02*
X498475Y136525D01*
X275924Y136525D01*
X258762Y153687D01*
G54D36*
X328612Y365162D02*
X363575Y365162D01*
X387350Y388938D01*
X387350Y561975D01*
X406400Y581025D01*
X498475Y581025D01*
X506412Y573088D01*
X506412Y500062D01*
X563562Y500062D01*
X563563Y449326D01*
G54D37*
X275208Y605789D02*
X279208Y603567D01*
X280542Y601344D01*
X280542Y596900D01*
G54D37*
X269875Y596900D02*
X269875Y614678D01*
X276542Y614678D01*
X279208Y613567D01*
X280542Y611344D01*
X280542Y609122D01*
X279208Y606900D01*
X276542Y605789D01*
X269875Y605789D01*
G54D37*
X285431Y600233D02*
X286764Y598011D01*
X289431Y596900D01*
X292098Y596900D01*
X294764Y598011D01*
X296098Y600233D01*
X296098Y602456D01*
X294764Y604678D01*
X292098Y605789D01*
X289431Y605789D01*
X286764Y606900D01*
X285431Y609122D01*
X285431Y611344D01*
X286764Y613567D01*
X289431Y614678D01*
X292098Y614678D01*
X294764Y613567D01*
X296098Y611344D01*
G54D37*
X300987Y604678D02*
X311654Y604678D01*
G54D37*
X324543Y596900D02*
X324543Y614678D01*
X316543Y603567D01*
X316543Y601344D01*
X327210Y601344D01*
G54D37*
X338766Y605789D02*
X336099Y605789D01*
X333432Y606900D01*
X332099Y609122D01*
X332099Y611344D01*
X333432Y613567D01*
X336099Y614678D01*
X338766Y614678D01*
X341432Y613567D01*
X342766Y611344D01*
X342766Y609122D01*
X341432Y606900D01*
X338766Y605789D01*
X341432Y604678D01*
X342766Y602456D01*
X342766Y600233D01*
X341432Y598011D01*
X338766Y596900D01*
X336099Y596900D01*
X333432Y598011D01*
X332099Y600233D01*
X332099Y602456D01*
X333432Y604678D01*
X336099Y605789D01*
G54D37*
X358322Y614678D02*
X347655Y614678D01*
X347655Y606900D01*
X348988Y606900D01*
X351655Y608011D01*
X354322Y608011D01*
X356988Y606900D01*
X358322Y604678D01*
X358322Y600233D01*
X356988Y598011D01*
X354322Y596900D01*
X351655Y596900D01*
X348988Y598011D01*
X347655Y600233D01*
G54D38*
X153284Y103914D02*
X151284Y104414D01*
X149284Y103914D01*
X148284Y102248D01*
X148284Y98914D01*
X149284Y97248D01*
X151284Y96914D01*
X153284Y97248D01*
G54D38*
X156951Y96914D02*
X156951Y104414D01*
G54D38*
X156951Y102748D02*
X158951Y104414D01*
X160951Y104414D01*
G54D38*
X170618Y97748D02*
X169018Y96914D01*
X167018Y96914D01*
X165018Y97748D01*
X164618Y99414D01*
X164618Y102248D01*
X165618Y103914D01*
X167618Y104414D01*
X169618Y103914D01*
X170618Y102748D01*
X170618Y101081D01*
X164618Y101081D01*
G54D38*
X174285Y103581D02*
X176285Y104414D01*
X178685Y104414D01*
X180285Y102748D01*
X180285Y96914D01*
G54D38*
X180285Y99414D02*
X179285Y101081D01*
X177285Y101414D01*
X175285Y101081D01*
X174285Y99414D01*
X174685Y97748D01*
X176285Y96914D01*
X177285Y96914D01*
X177685Y96914D01*
X179285Y97748D01*
X180285Y99414D01*
G54D38*
X185952Y110248D02*
X185952Y97748D01*
X186952Y96914D01*
X187952Y97248D01*
G54D38*
X183952Y104414D02*
X187952Y104414D01*
G54D38*
X197619Y97748D02*
X196019Y96914D01*
X194019Y96914D01*
X192019Y97748D01*
X191619Y99414D01*
X191619Y102248D01*
X192619Y103914D01*
X194619Y104414D01*
X196619Y103914D01*
X197619Y102748D01*
X197619Y101081D01*
X191619Y101081D01*
G54D38*
X207286Y96914D02*
X207286Y110248D01*
G54D38*
X207286Y102248D02*
X206286Y103914D01*
X204286Y104414D01*
X202286Y103914D01*
X201286Y102248D01*
X201286Y98914D01*
X202286Y97248D01*
X204286Y96914D01*
X206286Y97248D01*
X207286Y98914D01*
G54D38*
X214820Y96914D02*
X214820Y110248D01*
G54D38*
X214820Y102248D02*
X215820Y103914D01*
X217820Y104414D01*
X219820Y103914D01*
X220820Y102248D01*
X220820Y98914D01*
X219820Y97248D01*
X217820Y96914D01*
X215820Y97248D01*
X214820Y98914D01*
G54D38*
X224487Y104414D02*
X228487Y96914D01*
X232487Y104414D01*
G54D38*
X228487Y96914D02*
X227487Y94414D01*
X226487Y93581D01*
X225487Y93581D01*
G54D38*
X240021Y96914D02*
X240021Y110248D01*
G54D38*
X240021Y101081D02*
X248021Y110248D01*
G54D38*
X243021Y103581D02*
X248021Y96914D01*
G54D38*
X251688Y103581D02*
X253688Y104414D01*
X256088Y104414D01*
X257688Y102748D01*
X257688Y96914D01*
G54D38*
X257688Y99414D02*
X256688Y101081D01*
X254688Y101414D01*
X252688Y101081D01*
X251688Y99414D01*
X252088Y97748D01*
X253688Y96914D01*
X254688Y96914D01*
X255088Y96914D01*
X256688Y97748D01*
X257688Y99414D01*
G54D38*
X261355Y96914D02*
X261355Y104414D01*
G54D38*
X261355Y102748D02*
X263355Y104414D01*
X265355Y104414D01*
G54D38*
X269022Y96914D02*
X269022Y110248D01*
G54D38*
X272689Y96914D02*
X272689Y110248D01*
G54D38*
X280689Y96914D02*
X280689Y110248D01*
G54D38*
X272689Y103581D02*
X280689Y103581D01*
G54D38*
X284356Y103581D02*
X286356Y104414D01*
X288756Y104414D01*
X290356Y102748D01*
X290356Y96914D01*
G54D38*
X290356Y99414D02*
X289356Y101081D01*
X287356Y101414D01*
X285356Y101081D01*
X284356Y99414D01*
X284756Y97748D01*
X286356Y96914D01*
X287356Y96914D01*
X287756Y96914D01*
X289356Y97748D01*
X290356Y99414D01*
G54D38*
X294023Y96914D02*
X294023Y104414D01*
G54D38*
X294023Y102748D02*
X295023Y103914D01*
X297023Y104414D01*
X299023Y103914D01*
X300023Y102748D01*
X300023Y96914D01*
G54D38*
X303690Y104414D02*
X309690Y104414D01*
X303690Y96914D01*
X309690Y96914D01*
X94413Y255121D02*
G54D32*
D03*
X94761Y322933D02*
G54D31*
D03*
X94765Y539283D02*
G54D32*
D03*
X404813Y119126D02*
G54D34*
D03*
X182562Y153687D02*
G54D30*
D03*
X471934Y628209D02*
G54D32*
D03*
G36*
X456034Y618709D02*
X437034Y618709D01*
X437034Y637709D01*
X456034Y637709D01*
X456034Y618709D01*
G37*
X471934Y628209D02*
G54D31*
D03*
X306388Y630301D02*
G54D34*
D03*
G54D36*
X328612Y415962D02*
X347700Y415962D01*
X361950Y430212D01*
X361950Y574675D01*
X306452Y630238D01*
X306388Y630301D01*
G54D37*
X160338Y628650D02*
X160338Y646428D01*
X167004Y646428D01*
X169671Y645317D01*
X171004Y643094D01*
X171004Y640872D01*
X169671Y638650D01*
X167004Y637539D01*
X160338Y637539D01*
G54D37*
X175894Y646428D02*
X175894Y628650D01*
X185227Y628650D01*
G54D37*
X190116Y628650D02*
X196782Y646428D01*
X203449Y628650D01*
G54D37*
X192782Y635317D02*
X200782Y635317D01*
G54D37*
X208338Y646428D02*
X215004Y637539D01*
X215004Y628650D01*
G54D37*
X215004Y637539D02*
X221671Y646428D01*
G54D37*
X226560Y628650D02*
X226560Y646428D01*
X233226Y646428D01*
X235893Y645317D01*
X237226Y643094D01*
X237226Y640872D01*
X235893Y638650D01*
X233226Y637539D01*
X235893Y636428D01*
X237226Y634206D01*
X237226Y631983D01*
X235893Y629761D01*
X233226Y628650D01*
X226560Y628650D01*
G54D37*
X226560Y637539D02*
X233226Y637539D01*
G54D37*
X242116Y628650D02*
X248782Y646428D01*
X255449Y628650D01*
G54D37*
X244782Y635317D02*
X252782Y635317D01*
G54D37*
X271004Y631983D02*
X269671Y629761D01*
X267004Y628650D01*
X264338Y628650D01*
X261671Y629761D01*
X260338Y631983D01*
X260338Y643094D01*
X261671Y645317D01*
X264338Y646428D01*
X267004Y646428D01*
X269671Y645317D01*
X271004Y643094D01*
G54D37*
X275894Y628650D02*
X275894Y646428D01*
G54D37*
X275894Y634206D02*
X286560Y646428D01*
G54D37*
X279894Y637539D02*
X286560Y628650D01*
G54D37*
X161925Y596900D02*
X161925Y614678D01*
X168592Y603567D01*
X175258Y614678D01*
X175258Y596900D01*
G54D37*
X190814Y611344D02*
X190814Y600233D01*
X189480Y598011D01*
X186814Y596900D01*
X184147Y596900D01*
X181480Y598011D01*
X180147Y600233D01*
X180147Y611344D01*
X181480Y613567D01*
X184147Y614678D01*
X186814Y614678D01*
X189480Y613567D01*
X190814Y611344D01*
G54D37*
X195703Y596900D02*
X195703Y614678D01*
X202370Y614678D01*
X205036Y613567D01*
X206370Y611344D01*
X206370Y600233D01*
X205036Y598011D01*
X202370Y596900D01*
X195703Y596900D01*
G54D37*
X211259Y614678D02*
X211259Y600233D01*
X212592Y598011D01*
X215259Y596900D01*
X217926Y596900D01*
X220592Y598011D01*
X221926Y600233D01*
X221926Y614678D01*
G54D37*
X226815Y614678D02*
X226815Y596900D01*
X236148Y596900D01*
G54D37*
X250370Y596900D02*
X241037Y596900D01*
X241037Y614678D01*
X250370Y614678D01*
G54D37*
X241037Y605789D02*
X250370Y605789D01*
M02*
