; Drill file
; Format: 2.4 (00.0000)
M48
INCH
T01C0.0157
T02C0.0197
T03C0.0236
T04C0.0315
T05C0.1378
%
G05
G90
T01
X003730Y012710
X003730Y014290
X010190Y017380
X012060Y024820
X020000Y018380
X022190Y017690
X021060Y014130
X018940Y006310
X015940Y004690
X031560Y010060
X030560Y014130
T02
X023560Y006870
X024560Y006870
X028310Y006870
X029310Y006870
X029310Y021870
X028310Y021870
X023560Y021880
X023560Y020880
T03
X003720Y007040
X003720Y008040
X003720Y009040
X003720Y010040
X003730Y020230
X003730Y021230
X017580Y024730
X018580Y024730
X021830Y024730
X022830Y024730
X027460Y024730
X028460Y024730
T04
X007190Y006050
X008190Y006050
X009190Y006050
X010190Y006050
X012940Y007380
X012940Y008380
X012940Y009380
X012940Y010380
X012940Y011380
X012940Y012380
X012940Y013380
X012940Y014380
X012940Y015380
X012940Y016380
X012940Y017380
X012940Y018380
X012940Y019380
X012940Y020380
X012940Y021380
X010190Y022430
X009190Y022430
X008190Y022430
X007190Y022430
X018940Y021380
X018940Y020380
X018940Y019380
X018940Y018380
X018940Y017380
X018940Y016380
X018940Y015380
X018940Y014380
X018940Y013380
X018940Y012380
X018940Y011380
X018940Y010380
X018940Y009380
X018940Y008380
X018940Y007380
X023440Y012190
X023440Y013190
X023440Y014190
X023440Y015190
X023440Y016190
X023440Y017190
X023440Y018190
X023440Y019190
X029440Y019190
X029440Y018190
X029440Y017190
X029440Y016190
X029440Y015190
X029440Y014190
X029440Y013190
X029440Y012190
T05
X003310Y004130
X003310Y024620
X031690Y024620
X031690Y004130
M30
